<mxfile host="app.diagrams.net" modified="2023-08-19T13:12:48.794Z" agent="Mozilla/5.0 (Windows NT 10.0; Win64; x64) AppleWebKit/537.36 (KHTML, like Gecko) Chrome/115.0.0.0 Safari/537.36 Edg/115.0.1901.203" etag="TvpNHWnl1WxgthvZM6MV" version="21.6.8" type="device" pages="3">
  <diagram id="C5RBs43oDa-KdzZeNtuy" name="Page-1">
    <mxGraphModel dx="941" dy="453" grid="1" gridSize="10" guides="1" tooltips="1" connect="1" arrows="1" fold="1" page="1" pageScale="1" pageWidth="827" pageHeight="1169" math="0" shadow="0">
      <root>
        <mxCell id="WIyWlLk6GJQsqaUBKTNV-0" />
        <mxCell id="WIyWlLk6GJQsqaUBKTNV-1" parent="WIyWlLk6GJQsqaUBKTNV-0" />
        <mxCell id="zkfFHV4jXpPFQw0GAbJ--0" value="UserController" style="swimlane;fontStyle=1;align=center;verticalAlign=top;childLayout=stackLayout;horizontal=1;startSize=26;horizontalStack=0;resizeParent=1;resizeLast=0;collapsible=1;marginBottom=0;rounded=0;shadow=0;strokeWidth=1;" parent="WIyWlLk6GJQsqaUBKTNV-1" vertex="1">
          <mxGeometry x="340" y="600" width="210" height="220" as="geometry">
            <mxRectangle x="230" y="140" width="160" height="26" as="alternateBounds" />
          </mxGeometry>
        </mxCell>
        <mxCell id="zkfFHV4jXpPFQw0GAbJ--3" value=" " style="text;align=left;verticalAlign=top;spacingLeft=4;spacingRight=4;overflow=hidden;rotatable=0;points=[[0,0.5],[1,0.5]];portConstraint=eastwest;rounded=0;shadow=0;html=0;" parent="zkfFHV4jXpPFQw0GAbJ--0" vertex="1">
          <mxGeometry y="26" width="210" height="26" as="geometry" />
        </mxCell>
        <mxCell id="zkfFHV4jXpPFQw0GAbJ--4" value="" style="line;html=1;strokeWidth=1;align=left;verticalAlign=middle;spacingTop=-1;spacingLeft=3;spacingRight=3;rotatable=0;labelPosition=right;points=[];portConstraint=eastwest;" parent="zkfFHV4jXpPFQw0GAbJ--0" vertex="1">
          <mxGeometry y="52" width="210" height="8" as="geometry" />
        </mxCell>
        <mxCell id="zkfFHV4jXpPFQw0GAbJ--5" value="+ postSignUp(req,res,next)" style="text;align=left;verticalAlign=top;spacingLeft=4;spacingRight=4;overflow=hidden;rotatable=0;points=[[0,0.5],[1,0.5]];portConstraint=eastwest;" parent="zkfFHV4jXpPFQw0GAbJ--0" vertex="1">
          <mxGeometry y="60" width="210" height="26" as="geometry" />
        </mxCell>
        <mxCell id="fMrC4Mk5_JeurlQgKgX7-0" value="+ postLogIn(req,res,next)" style="text;align=left;verticalAlign=top;spacingLeft=4;spacingRight=4;overflow=hidden;rotatable=0;points=[[0,0.5],[1,0.5]];portConstraint=eastwest;" parent="zkfFHV4jXpPFQw0GAbJ--0" vertex="1">
          <mxGeometry y="86" width="210" height="26" as="geometry" />
        </mxCell>
        <mxCell id="fMrC4Mk5_JeurlQgKgX7-1" value="+ postCheckOrderInfo(req,res,next)" style="text;align=left;verticalAlign=top;spacingLeft=4;spacingRight=4;overflow=hidden;rotatable=0;points=[[0,0.5],[1,0.5]];portConstraint=eastwest;" parent="zkfFHV4jXpPFQw0GAbJ--0" vertex="1">
          <mxGeometry y="112" width="210" height="28" as="geometry" />
        </mxCell>
        <mxCell id="fMrC4Mk5_JeurlQgKgX7-108" value="+ postConfirmOrdering(req,res,next)" style="text;align=left;verticalAlign=top;spacingLeft=4;spacingRight=4;overflow=hidden;rotatable=0;points=[[0,0.5],[1,0.5]];portConstraint=eastwest;" parent="zkfFHV4jXpPFQw0GAbJ--0" vertex="1">
          <mxGeometry y="140" width="210" height="28" as="geometry" />
        </mxCell>
        <mxCell id="fMrC4Mk5_JeurlQgKgX7-126" value="+ postLogOut(req,res,next)" style="text;align=left;verticalAlign=top;spacingLeft=4;spacingRight=4;overflow=hidden;rotatable=0;points=[[0,0.5],[1,0.5]];portConstraint=eastwest;" parent="zkfFHV4jXpPFQw0GAbJ--0" vertex="1">
          <mxGeometry y="168" width="210" height="22" as="geometry" />
        </mxCell>
        <mxCell id="fMrC4Mk5_JeurlQgKgX7-212" value="+ postPurchase(req,res,next)" style="text;align=left;verticalAlign=top;spacingLeft=4;spacingRight=4;overflow=hidden;rotatable=0;points=[[0,0.5],[1,0.5]];portConstraint=eastwest;" parent="zkfFHV4jXpPFQw0GAbJ--0" vertex="1">
          <mxGeometry y="190" width="210" height="20" as="geometry" />
        </mxCell>
        <mxCell id="zkfFHV4jXpPFQw0GAbJ--6" value="ShopController" style="swimlane;fontStyle=1;align=center;verticalAlign=top;childLayout=stackLayout;horizontal=1;startSize=26;horizontalStack=0;resizeParent=1;resizeLast=0;collapsible=1;marginBottom=0;rounded=0;shadow=0;strokeWidth=1;" parent="WIyWlLk6GJQsqaUBKTNV-1" vertex="1">
          <mxGeometry x="1030" y="154" width="210" height="286" as="geometry">
            <mxRectangle x="130" y="380" width="160" height="26" as="alternateBounds" />
          </mxGeometry>
        </mxCell>
        <mxCell id="zkfFHV4jXpPFQw0GAbJ--8" value=" " style="text;align=left;verticalAlign=top;spacingLeft=4;spacingRight=4;overflow=hidden;rotatable=0;points=[[0,0.5],[1,0.5]];portConstraint=eastwest;rounded=0;shadow=0;html=0;" parent="zkfFHV4jXpPFQw0GAbJ--6" vertex="1">
          <mxGeometry y="26" width="210" height="26" as="geometry" />
        </mxCell>
        <mxCell id="zkfFHV4jXpPFQw0GAbJ--9" value="" style="line;html=1;strokeWidth=1;align=left;verticalAlign=middle;spacingTop=-1;spacingLeft=3;spacingRight=3;rotatable=0;labelPosition=right;points=[];portConstraint=eastwest;" parent="zkfFHV4jXpPFQw0GAbJ--6" vertex="1">
          <mxGeometry y="52" width="210" height="8" as="geometry" />
        </mxCell>
        <mxCell id="fMrC4Mk5_JeurlQgKgX7-17" value="+ postCreateShop(req,res,next)" style="text;align=left;verticalAlign=top;spacingLeft=4;spacingRight=4;overflow=hidden;rotatable=0;points=[[0,0.5],[1,0.5]];portConstraint=eastwest;" parent="zkfFHV4jXpPFQw0GAbJ--6" vertex="1">
          <mxGeometry y="60" width="210" height="26" as="geometry" />
        </mxCell>
        <mxCell id="fMrC4Mk5_JeurlQgKgX7-125" value="+ postUpdateShop(req,res,next)" style="text;align=left;verticalAlign=top;spacingLeft=4;spacingRight=4;overflow=hidden;rotatable=0;points=[[0,0.5],[1,0.5]];portConstraint=eastwest;" parent="zkfFHV4jXpPFQw0GAbJ--6" vertex="1">
          <mxGeometry y="86" width="210" height="24" as="geometry" />
        </mxCell>
        <mxCell id="fMrC4Mk5_JeurlQgKgX7-176" value="+ postDeleteShop(req,res,next)" style="text;align=left;verticalAlign=top;spacingLeft=4;spacingRight=4;overflow=hidden;rotatable=0;points=[[0,0.5],[1,0.5]];portConstraint=eastwest;" parent="zkfFHV4jXpPFQw0GAbJ--6" vertex="1">
          <mxGeometry y="110" width="210" height="26" as="geometry" />
        </mxCell>
        <mxCell id="Akci75qek_JRG4G3-tMm-0" value="+ postAddShop(req,res,next)" style="text;align=left;verticalAlign=top;spacingLeft=4;spacingRight=4;overflow=hidden;rotatable=0;points=[[0,0.5],[1,0.5]];portConstraint=eastwest;" parent="zkfFHV4jXpPFQw0GAbJ--6" vertex="1">
          <mxGeometry y="136" width="210" height="26" as="geometry" />
        </mxCell>
        <mxCell id="Akci75qek_JRG4G3-tMm-1" value="+ postManageProduct(req,res,next)" style="text;align=left;verticalAlign=top;spacingLeft=4;spacingRight=4;overflow=hidden;rotatable=0;points=[[0,0.5],[1,0.5]];portConstraint=eastwest;" parent="zkfFHV4jXpPFQw0GAbJ--6" vertex="1">
          <mxGeometry y="162" width="210" height="26" as="geometry" />
        </mxCell>
        <mxCell id="fMrC4Mk5_JeurlQgKgX7-196" value="+ postManageOdering(req,res,next)" style="text;align=left;verticalAlign=top;spacingLeft=4;spacingRight=4;overflow=hidden;rotatable=0;points=[[0,0.5],[1,0.5]];portConstraint=eastwest;" parent="zkfFHV4jXpPFQw0GAbJ--6" vertex="1">
          <mxGeometry y="188" width="210" height="26" as="geometry" />
        </mxCell>
        <mxCell id="Akci75qek_JRG4G3-tMm-2" value="+ postDeleteProducts(req,res,next)" style="text;align=left;verticalAlign=top;spacingLeft=4;spacingRight=4;overflow=hidden;rotatable=0;points=[[0,0.5],[1,0.5]];portConstraint=eastwest;" parent="zkfFHV4jXpPFQw0GAbJ--6" vertex="1">
          <mxGeometry y="214" width="210" height="20" as="geometry" />
        </mxCell>
        <mxCell id="Akci75qek_JRG4G3-tMm-3" value="+ postPostProducts(req,res,next)" style="text;align=left;verticalAlign=top;spacingLeft=4;spacingRight=4;overflow=hidden;rotatable=0;points=[[0,0.5],[1,0.5]];portConstraint=eastwest;" parent="zkfFHV4jXpPFQw0GAbJ--6" vertex="1">
          <mxGeometry y="234" width="210" height="26" as="geometry" />
        </mxCell>
        <mxCell id="Akci75qek_JRG4G3-tMm-4" value="+ postCreateProducts(req,res,next)" style="text;align=left;verticalAlign=top;spacingLeft=4;spacingRight=4;overflow=hidden;rotatable=0;points=[[0,0.5],[1,0.5]];portConstraint=eastwest;" parent="zkfFHV4jXpPFQw0GAbJ--6" vertex="1">
          <mxGeometry y="260" width="210" height="20" as="geometry" />
        </mxCell>
        <mxCell id="zkfFHV4jXpPFQw0GAbJ--13" value="AdminController" style="swimlane;fontStyle=1;align=center;verticalAlign=top;childLayout=stackLayout;horizontal=1;startSize=26;horizontalStack=0;resizeParent=1;resizeLast=0;collapsible=1;marginBottom=0;rounded=0;shadow=0;strokeWidth=1;" parent="WIyWlLk6GJQsqaUBKTNV-1" vertex="1">
          <mxGeometry x="195" y="271" width="200" height="180" as="geometry">
            <mxRectangle x="340" y="380" width="170" height="26" as="alternateBounds" />
          </mxGeometry>
        </mxCell>
        <mxCell id="zkfFHV4jXpPFQw0GAbJ--14" value=" " style="text;align=left;verticalAlign=top;spacingLeft=4;spacingRight=4;overflow=hidden;rotatable=0;points=[[0,0.5],[1,0.5]];portConstraint=eastwest;" parent="zkfFHV4jXpPFQw0GAbJ--13" vertex="1">
          <mxGeometry y="26" width="200" height="26" as="geometry" />
        </mxCell>
        <mxCell id="zkfFHV4jXpPFQw0GAbJ--15" value="" style="line;html=1;strokeWidth=1;align=left;verticalAlign=middle;spacingTop=-1;spacingLeft=3;spacingRight=3;rotatable=0;labelPosition=right;points=[];portConstraint=eastwest;" parent="zkfFHV4jXpPFQw0GAbJ--13" vertex="1">
          <mxGeometry y="52" width="200" height="2" as="geometry" />
        </mxCell>
        <mxCell id="fMrC4Mk5_JeurlQgKgX7-22" value="+ postCreateAdmin(req,res,next)" style="text;align=left;verticalAlign=top;spacingLeft=4;spacingRight=4;overflow=hidden;rotatable=0;points=[[0,0.5],[1,0.5]];portConstraint=eastwest;" parent="zkfFHV4jXpPFQw0GAbJ--13" vertex="1">
          <mxGeometry y="54" width="200" height="26" as="geometry" />
        </mxCell>
        <mxCell id="fMrC4Mk5_JeurlQgKgX7-91" value="+ postManageUser(req,res,next)" style="text;align=left;verticalAlign=top;spacingLeft=4;spacingRight=4;overflow=hidden;rotatable=0;points=[[0,0.5],[1,0.5]];portConstraint=eastwest;" parent="zkfFHV4jXpPFQw0GAbJ--13" vertex="1">
          <mxGeometry y="80" width="200" height="26" as="geometry" />
        </mxCell>
        <mxCell id="fMrC4Mk5_JeurlQgKgX7-90" value="+ postPublishArticles(req,res,next)" style="text;align=left;verticalAlign=top;spacingLeft=4;spacingRight=4;overflow=hidden;rotatable=0;points=[[0,0.5],[1,0.5]];portConstraint=eastwest;" parent="zkfFHV4jXpPFQw0GAbJ--13" vertex="1">
          <mxGeometry y="106" width="200" height="26" as="geometry" />
        </mxCell>
        <mxCell id="fMrC4Mk5_JeurlQgKgX7-92" value="+ postControlWebsite(req,res,next)" style="text;align=left;verticalAlign=top;spacingLeft=4;spacingRight=4;overflow=hidden;rotatable=0;points=[[0,0.5],[1,0.5]];portConstraint=eastwest;" parent="zkfFHV4jXpPFQw0GAbJ--13" vertex="1">
          <mxGeometry y="132" width="200" height="22" as="geometry" />
        </mxCell>
        <mxCell id="fMrC4Mk5_JeurlQgKgX7-93" value="+ postProcessReport(req,res,next)" style="text;align=left;verticalAlign=top;spacingLeft=4;spacingRight=4;overflow=hidden;rotatable=0;points=[[0,0.5],[1,0.5]];portConstraint=eastwest;" parent="zkfFHV4jXpPFQw0GAbJ--13" vertex="1">
          <mxGeometry y="154" width="200" height="26" as="geometry" />
        </mxCell>
        <mxCell id="zkfFHV4jXpPFQw0GAbJ--17" value="ArticleController" style="swimlane;fontStyle=1;align=center;verticalAlign=top;childLayout=stackLayout;horizontal=1;startSize=26;horizontalStack=0;resizeParent=1;resizeLast=0;collapsible=1;marginBottom=0;rounded=0;shadow=0;strokeWidth=1;" parent="WIyWlLk6GJQsqaUBKTNV-1" vertex="1">
          <mxGeometry x="955" y="630" width="190" height="170" as="geometry">
            <mxRectangle x="550" y="140" width="160" height="26" as="alternateBounds" />
          </mxGeometry>
        </mxCell>
        <mxCell id="zkfFHV4jXpPFQw0GAbJ--18" value=" " style="text;align=left;verticalAlign=top;spacingLeft=4;spacingRight=4;overflow=hidden;rotatable=0;points=[[0,0.5],[1,0.5]];portConstraint=eastwest;" parent="zkfFHV4jXpPFQw0GAbJ--17" vertex="1">
          <mxGeometry y="26" width="190" height="26" as="geometry" />
        </mxCell>
        <mxCell id="zkfFHV4jXpPFQw0GAbJ--23" value="" style="line;html=1;strokeWidth=1;align=left;verticalAlign=middle;spacingTop=-1;spacingLeft=3;spacingRight=3;rotatable=0;labelPosition=right;points=[];portConstraint=eastwest;" parent="zkfFHV4jXpPFQw0GAbJ--17" vertex="1">
          <mxGeometry y="52" width="190" height="8" as="geometry" />
        </mxCell>
        <mxCell id="zkfFHV4jXpPFQw0GAbJ--24" value="+ postCreateArticle(req,res,next)" style="text;align=left;verticalAlign=top;spacingLeft=4;spacingRight=4;overflow=hidden;rotatable=0;points=[[0,0.5],[1,0.5]];portConstraint=eastwest;" parent="zkfFHV4jXpPFQw0GAbJ--17" vertex="1">
          <mxGeometry y="60" width="190" height="26" as="geometry" />
        </mxCell>
        <mxCell id="zkfFHV4jXpPFQw0GAbJ--25" value="+ postUpdateArticle(): void" style="text;align=left;verticalAlign=top;spacingLeft=4;spacingRight=4;overflow=hidden;rotatable=0;points=[[0,0.5],[1,0.5]];portConstraint=eastwest;" parent="zkfFHV4jXpPFQw0GAbJ--17" vertex="1">
          <mxGeometry y="86" width="190" height="26" as="geometry" />
        </mxCell>
        <mxCell id="fMrC4Mk5_JeurlQgKgX7-174" value="+ postDeleteArticle(req,res,next)" style="text;align=left;verticalAlign=top;spacingLeft=4;spacingRight=4;overflow=hidden;rotatable=0;points=[[0,0.5],[1,0.5]];portConstraint=eastwest;" parent="zkfFHV4jXpPFQw0GAbJ--17" vertex="1">
          <mxGeometry y="112" width="190" height="28" as="geometry" />
        </mxCell>
        <mxCell id="fMrC4Mk5_JeurlQgKgX7-202" value="+ postReadArticle(req,res,next)" style="text;align=left;verticalAlign=top;spacingLeft=4;spacingRight=4;overflow=hidden;rotatable=0;points=[[0,0.5],[1,0.5]];portConstraint=eastwest;" parent="zkfFHV4jXpPFQw0GAbJ--17" vertex="1">
          <mxGeometry y="140" width="190" height="30" as="geometry" />
        </mxCell>
        <mxCell id="fMrC4Mk5_JeurlQgKgX7-61" value="OrderController" style="swimlane;fontStyle=1;align=center;verticalAlign=top;childLayout=stackLayout;horizontal=1;startSize=26;horizontalStack=0;resizeParent=1;resizeLast=0;collapsible=1;marginBottom=0;rounded=0;shadow=0;strokeWidth=1;" parent="WIyWlLk6GJQsqaUBKTNV-1" vertex="1">
          <mxGeometry x="650" y="636" width="230" height="218" as="geometry">
            <mxRectangle x="340" y="380" width="170" height="26" as="alternateBounds" />
          </mxGeometry>
        </mxCell>
        <mxCell id="fMrC4Mk5_JeurlQgKgX7-63" value=" " style="text;align=left;verticalAlign=top;spacingLeft=4;spacingRight=4;overflow=hidden;rotatable=0;points=[[0,0.5],[1,0.5]];portConstraint=eastwest;" parent="fMrC4Mk5_JeurlQgKgX7-61" vertex="1">
          <mxGeometry y="26" width="230" height="26" as="geometry" />
        </mxCell>
        <mxCell id="fMrC4Mk5_JeurlQgKgX7-64" value="" style="line;html=1;strokeWidth=1;align=left;verticalAlign=middle;spacingTop=-1;spacingLeft=3;spacingRight=3;rotatable=0;labelPosition=right;points=[];portConstraint=eastwest;" parent="fMrC4Mk5_JeurlQgKgX7-61" vertex="1">
          <mxGeometry y="52" width="230" height="2" as="geometry" />
        </mxCell>
        <mxCell id="fMrC4Mk5_JeurlQgKgX7-124" value="+ postUpdateOrders(req,res,next)" style="text;align=left;verticalAlign=top;spacingLeft=4;spacingRight=4;overflow=hidden;rotatable=0;points=[[0,0.5],[1,0.5]];portConstraint=eastwest;" parent="fMrC4Mk5_JeurlQgKgX7-61" vertex="1">
          <mxGeometry y="54" width="230" height="30" as="geometry" />
        </mxCell>
        <mxCell id="fMrC4Mk5_JeurlQgKgX7-211" value="+ postRemoveOrders(req,res,next)" style="text;align=left;verticalAlign=top;spacingLeft=4;spacingRight=4;overflow=hidden;rotatable=0;points=[[0,0.5],[1,0.5]];portConstraint=eastwest;" parent="fMrC4Mk5_JeurlQgKgX7-61" vertex="1">
          <mxGeometry y="84" width="230" height="26" as="geometry" />
        </mxCell>
        <mxCell id="fMrC4Mk5_JeurlQgKgX7-216" value="+ postAddOrders(req,res,next)" style="text;align=left;verticalAlign=top;spacingLeft=4;spacingRight=4;overflow=hidden;rotatable=0;points=[[0,0.5],[1,0.5]];portConstraint=eastwest;" parent="fMrC4Mk5_JeurlQgKgX7-61" vertex="1">
          <mxGeometry y="110" width="230" height="26" as="geometry" />
        </mxCell>
        <mxCell id="Akci75qek_JRG4G3-tMm-10" value="+ postUpdateOrders_Shop(req,res,next)" style="text;align=left;verticalAlign=top;spacingLeft=4;spacingRight=4;overflow=hidden;rotatable=0;points=[[0,0.5],[1,0.5]];portConstraint=eastwest;" parent="fMrC4Mk5_JeurlQgKgX7-61" vertex="1">
          <mxGeometry y="136" width="230" height="30" as="geometry" />
        </mxCell>
        <mxCell id="Akci75qek_JRG4G3-tMm-12" value="+ postAddOrders_Shop(req,res,next)" style="text;align=left;verticalAlign=top;spacingLeft=4;spacingRight=4;overflow=hidden;rotatable=0;points=[[0,0.5],[1,0.5]];portConstraint=eastwest;" parent="fMrC4Mk5_JeurlQgKgX7-61" vertex="1">
          <mxGeometry y="166" width="230" height="26" as="geometry" />
        </mxCell>
        <mxCell id="Akci75qek_JRG4G3-tMm-11" value="+ postRemoveOrders_Shop(req,res,next)" style="text;align=left;verticalAlign=top;spacingLeft=4;spacingRight=4;overflow=hidden;rotatable=0;points=[[0,0.5],[1,0.5]];portConstraint=eastwest;" parent="fMrC4Mk5_JeurlQgKgX7-61" vertex="1">
          <mxGeometry y="192" width="230" height="26" as="geometry" />
        </mxCell>
        <mxCell id="fMrC4Mk5_JeurlQgKgX7-83" value="Controller" style="swimlane;fontStyle=0;align=center;verticalAlign=top;childLayout=stackLayout;horizontal=1;startSize=26;horizontalStack=0;resizeParent=1;resizeLast=0;collapsible=1;marginBottom=0;rounded=0;shadow=0;strokeWidth=1;" parent="WIyWlLk6GJQsqaUBKTNV-1" vertex="1">
          <mxGeometry x="605" y="380" width="170" height="164" as="geometry">
            <mxRectangle x="230" y="140" width="160" height="26" as="alternateBounds" />
          </mxGeometry>
        </mxCell>
        <mxCell id="X-SuICFl89NwzLNnwC1H-7" value="- shopController" style="text;align=left;verticalAlign=top;spacingLeft=4;spacingRight=4;overflow=hidden;rotatable=0;points=[[0,0.5],[1,0.5]];portConstraint=eastwest;rounded=0;shadow=0;html=0;" parent="fMrC4Mk5_JeurlQgKgX7-83" vertex="1">
          <mxGeometry y="26" width="170" height="24" as="geometry" />
        </mxCell>
        <mxCell id="X-SuICFl89NwzLNnwC1H-8" value="- articleController" style="text;align=left;verticalAlign=top;spacingLeft=4;spacingRight=4;overflow=hidden;rotatable=0;points=[[0,0.5],[1,0.5]];portConstraint=eastwest;rounded=0;shadow=0;html=0;" parent="fMrC4Mk5_JeurlQgKgX7-83" vertex="1">
          <mxGeometry y="50" width="170" height="24" as="geometry" />
        </mxCell>
        <mxCell id="X-SuICFl89NwzLNnwC1H-10" value="- orderController" style="text;align=left;verticalAlign=top;spacingLeft=4;spacingRight=4;overflow=hidden;rotatable=0;points=[[0,0.5],[1,0.5]];portConstraint=eastwest;rounded=0;shadow=0;html=0;" parent="fMrC4Mk5_JeurlQgKgX7-83" vertex="1">
          <mxGeometry y="74" width="170" height="24" as="geometry" />
        </mxCell>
        <mxCell id="X-SuICFl89NwzLNnwC1H-9" value="- userController" style="text;align=left;verticalAlign=top;spacingLeft=4;spacingRight=4;overflow=hidden;rotatable=0;points=[[0,0.5],[1,0.5]];portConstraint=eastwest;rounded=0;shadow=0;html=0;" parent="fMrC4Mk5_JeurlQgKgX7-83" vertex="1">
          <mxGeometry y="98" width="170" height="24" as="geometry" />
        </mxCell>
        <mxCell id="X-SuICFl89NwzLNnwC1H-11" value="- adminController" style="text;align=left;verticalAlign=top;spacingLeft=4;spacingRight=4;overflow=hidden;rotatable=0;points=[[0,0.5],[1,0.5]];portConstraint=eastwest;rounded=0;shadow=0;html=0;" parent="fMrC4Mk5_JeurlQgKgX7-83" vertex="1">
          <mxGeometry y="122" width="170" height="24" as="geometry" />
        </mxCell>
        <mxCell id="fMrC4Mk5_JeurlQgKgX7-98" value="ProductController" style="swimlane;fontStyle=1;align=center;verticalAlign=top;childLayout=stackLayout;horizontal=1;startSize=26;horizontalStack=0;resizeParent=1;resizeLast=0;collapsible=1;marginBottom=0;rounded=0;shadow=0;strokeWidth=1;" parent="WIyWlLk6GJQsqaUBKTNV-1" vertex="1">
          <mxGeometry x="1330" y="440" width="210" height="110" as="geometry">
            <mxRectangle x="130" y="380" width="160" height="26" as="alternateBounds" />
          </mxGeometry>
        </mxCell>
        <mxCell id="fMrC4Mk5_JeurlQgKgX7-99" value=" " style="text;align=left;verticalAlign=top;spacingLeft=4;spacingRight=4;overflow=hidden;rotatable=0;points=[[0,0.5],[1,0.5]];portConstraint=eastwest;rounded=0;shadow=0;html=0;" parent="fMrC4Mk5_JeurlQgKgX7-98" vertex="1">
          <mxGeometry y="26" width="210" height="26" as="geometry" />
        </mxCell>
        <mxCell id="fMrC4Mk5_JeurlQgKgX7-100" value="" style="line;html=1;strokeWidth=1;align=left;verticalAlign=middle;spacingTop=-1;spacingLeft=3;spacingRight=3;rotatable=0;labelPosition=right;points=[];portConstraint=eastwest;" parent="fMrC4Mk5_JeurlQgKgX7-98" vertex="1">
          <mxGeometry y="52" width="210" height="8" as="geometry" />
        </mxCell>
        <mxCell id="fMrC4Mk5_JeurlQgKgX7-162" value="+ postSearchProducts(req,res,next)" style="text;align=left;verticalAlign=top;spacingLeft=4;spacingRight=4;overflow=hidden;rotatable=0;points=[[0,0.5],[1,0.5]];portConstraint=eastwest;" parent="fMrC4Mk5_JeurlQgKgX7-98" vertex="1">
          <mxGeometry y="60" width="210" height="24" as="geometry" />
        </mxCell>
        <mxCell id="Akci75qek_JRG4G3-tMm-5" value="+ getProducts(req,res,next)" style="text;align=left;verticalAlign=top;spacingLeft=4;spacingRight=4;overflow=hidden;rotatable=0;points=[[0,0.5],[1,0.5]];portConstraint=eastwest;" parent="fMrC4Mk5_JeurlQgKgX7-98" vertex="1">
          <mxGeometry y="84" width="210" height="24" as="geometry" />
        </mxCell>
        <mxCell id="fMrC4Mk5_JeurlQgKgX7-127" value="ShopPage&#xa;(from Views)" style="swimlane;fontStyle=1;align=center;verticalAlign=top;childLayout=stackLayout;horizontal=1;startSize=40;horizontalStack=0;resizeParent=1;resizeLast=0;collapsible=1;marginBottom=0;rounded=0;shadow=0;strokeWidth=1;" parent="WIyWlLk6GJQsqaUBKTNV-1" vertex="1">
          <mxGeometry x="120" y="650" width="180" height="50" as="geometry">
            <mxRectangle x="230" y="140" width="160" height="26" as="alternateBounds" />
          </mxGeometry>
        </mxCell>
        <mxCell id="fMrC4Mk5_JeurlQgKgX7-128" value=" " style="text;align=left;verticalAlign=top;spacingLeft=4;spacingRight=4;overflow=hidden;rotatable=0;points=[[0,0.5],[1,0.5]];portConstraint=eastwest;rounded=0;shadow=0;html=0;" parent="fMrC4Mk5_JeurlQgKgX7-127" vertex="1">
          <mxGeometry y="40" width="180" as="geometry" />
        </mxCell>
        <mxCell id="fMrC4Mk5_JeurlQgKgX7-129" value="" style="line;html=1;strokeWidth=1;align=left;verticalAlign=middle;spacingTop=-1;spacingLeft=3;spacingRight=3;rotatable=0;labelPosition=right;points=[];portConstraint=eastwest;" parent="fMrC4Mk5_JeurlQgKgX7-127" vertex="1">
          <mxGeometry y="40" width="180" height="8" as="geometry" />
        </mxCell>
        <mxCell id="fMrC4Mk5_JeurlQgKgX7-137" value="LoginPage&#xa;(from Views)" style="swimlane;fontStyle=1;align=center;verticalAlign=top;childLayout=stackLayout;horizontal=1;startSize=40;horizontalStack=0;resizeParent=1;resizeLast=0;collapsible=1;marginBottom=0;rounded=0;shadow=0;strokeWidth=1;" parent="WIyWlLk6GJQsqaUBKTNV-1" vertex="1">
          <mxGeometry x="125" y="720" width="180" height="50" as="geometry">
            <mxRectangle x="230" y="140" width="160" height="26" as="alternateBounds" />
          </mxGeometry>
        </mxCell>
        <mxCell id="fMrC4Mk5_JeurlQgKgX7-138" value=" " style="text;align=left;verticalAlign=top;spacingLeft=4;spacingRight=4;overflow=hidden;rotatable=0;points=[[0,0.5],[1,0.5]];portConstraint=eastwest;rounded=0;shadow=0;html=0;" parent="fMrC4Mk5_JeurlQgKgX7-137" vertex="1">
          <mxGeometry y="40" width="180" as="geometry" />
        </mxCell>
        <mxCell id="fMrC4Mk5_JeurlQgKgX7-139" value="" style="line;html=1;strokeWidth=1;align=left;verticalAlign=middle;spacingTop=-1;spacingLeft=3;spacingRight=3;rotatable=0;labelPosition=right;points=[];portConstraint=eastwest;" parent="fMrC4Mk5_JeurlQgKgX7-137" vertex="1">
          <mxGeometry y="40" width="180" height="8" as="geometry" />
        </mxCell>
        <mxCell id="fMrC4Mk5_JeurlQgKgX7-140" value="Users&#xa;(from Model)" style="swimlane;fontStyle=1;align=center;verticalAlign=top;childLayout=stackLayout;horizontal=1;startSize=40;horizontalStack=0;resizeParent=1;resizeLast=0;collapsible=1;marginBottom=0;rounded=0;shadow=0;strokeWidth=1;" parent="WIyWlLk6GJQsqaUBKTNV-1" vertex="1">
          <mxGeometry x="205" y="858" width="180" height="50" as="geometry">
            <mxRectangle x="230" y="140" width="160" height="26" as="alternateBounds" />
          </mxGeometry>
        </mxCell>
        <mxCell id="fMrC4Mk5_JeurlQgKgX7-141" value=" " style="text;align=left;verticalAlign=top;spacingLeft=4;spacingRight=4;overflow=hidden;rotatable=0;points=[[0,0.5],[1,0.5]];portConstraint=eastwest;rounded=0;shadow=0;html=0;" parent="fMrC4Mk5_JeurlQgKgX7-140" vertex="1">
          <mxGeometry y="40" width="180" as="geometry" />
        </mxCell>
        <mxCell id="fMrC4Mk5_JeurlQgKgX7-142" value="" style="line;html=1;strokeWidth=1;align=left;verticalAlign=middle;spacingTop=-1;spacingLeft=3;spacingRight=3;rotatable=0;labelPosition=right;points=[];portConstraint=eastwest;" parent="fMrC4Mk5_JeurlQgKgX7-140" vertex="1">
          <mxGeometry y="40" width="180" height="8" as="geometry" />
        </mxCell>
        <mxCell id="fMrC4Mk5_JeurlQgKgX7-143" value="SignupPage&#xa;(from Views)" style="swimlane;fontStyle=1;align=center;verticalAlign=top;childLayout=stackLayout;horizontal=1;startSize=40;horizontalStack=0;resizeParent=1;resizeLast=0;collapsible=1;marginBottom=0;rounded=0;shadow=0;strokeWidth=1;" parent="WIyWlLk6GJQsqaUBKTNV-1" vertex="1">
          <mxGeometry x="435" y="850" width="180" height="50" as="geometry">
            <mxRectangle x="230" y="140" width="160" height="26" as="alternateBounds" />
          </mxGeometry>
        </mxCell>
        <mxCell id="fMrC4Mk5_JeurlQgKgX7-144" value=" " style="text;align=left;verticalAlign=top;spacingLeft=4;spacingRight=4;overflow=hidden;rotatable=0;points=[[0,0.5],[1,0.5]];portConstraint=eastwest;rounded=0;shadow=0;html=0;" parent="fMrC4Mk5_JeurlQgKgX7-143" vertex="1">
          <mxGeometry y="40" width="180" as="geometry" />
        </mxCell>
        <mxCell id="fMrC4Mk5_JeurlQgKgX7-145" value="" style="line;html=1;strokeWidth=1;align=left;verticalAlign=middle;spacingTop=-1;spacingLeft=3;spacingRight=3;rotatable=0;labelPosition=right;points=[];portConstraint=eastwest;" parent="fMrC4Mk5_JeurlQgKgX7-143" vertex="1">
          <mxGeometry y="40" width="180" height="8" as="geometry" />
        </mxCell>
        <mxCell id="fMrC4Mk5_JeurlQgKgX7-146" value="" style="endArrow=open;endSize=12;dashed=1;html=1;rounded=0;exitX=0;exitY=0.5;exitDx=0;exitDy=0;entryX=1;entryY=0.5;entryDx=0;entryDy=0;" parent="WIyWlLk6GJQsqaUBKTNV-1" source="fMrC4Mk5_JeurlQgKgX7-1" target="fMrC4Mk5_JeurlQgKgX7-127" edge="1">
          <mxGeometry width="160" relative="1" as="geometry">
            <mxPoint x="315" y="670" as="sourcePoint" />
            <mxPoint x="475" y="670" as="targetPoint" />
          </mxGeometry>
        </mxCell>
        <mxCell id="fMrC4Mk5_JeurlQgKgX7-147" value="" style="endArrow=open;endSize=12;dashed=1;html=1;rounded=0;exitX=0;exitY=0.5;exitDx=0;exitDy=0;entryX=1;entryY=0.5;entryDx=0;entryDy=0;" parent="WIyWlLk6GJQsqaUBKTNV-1" source="fMrC4Mk5_JeurlQgKgX7-1" target="fMrC4Mk5_JeurlQgKgX7-137" edge="1">
          <mxGeometry width="160" relative="1" as="geometry">
            <mxPoint x="350" y="736" as="sourcePoint" />
            <mxPoint x="295" y="635" as="targetPoint" />
          </mxGeometry>
        </mxCell>
        <mxCell id="fMrC4Mk5_JeurlQgKgX7-148" value="" style="endArrow=open;endSize=12;dashed=1;html=1;rounded=0;exitX=0.25;exitY=1;exitDx=0;exitDy=0;entryX=0.5;entryY=0;entryDx=0;entryDy=0;" parent="WIyWlLk6GJQsqaUBKTNV-1" source="zkfFHV4jXpPFQw0GAbJ--0" target="fMrC4Mk5_JeurlQgKgX7-140" edge="1">
          <mxGeometry width="160" relative="1" as="geometry">
            <mxPoint x="360" y="746" as="sourcePoint" />
            <mxPoint x="305" y="645" as="targetPoint" />
          </mxGeometry>
        </mxCell>
        <mxCell id="fMrC4Mk5_JeurlQgKgX7-149" value="" style="endArrow=open;endSize=12;dashed=1;html=1;rounded=0;entryX=0.5;entryY=0;entryDx=0;entryDy=0;exitX=0.5;exitY=1;exitDx=0;exitDy=0;" parent="WIyWlLk6GJQsqaUBKTNV-1" source="zkfFHV4jXpPFQw0GAbJ--0" target="fMrC4Mk5_JeurlQgKgX7-143" edge="1">
          <mxGeometry width="160" relative="1" as="geometry">
            <mxPoint x="495" y="860" as="sourcePoint" />
            <mxPoint x="315" y="655" as="targetPoint" />
          </mxGeometry>
        </mxCell>
        <mxCell id="fMrC4Mk5_JeurlQgKgX7-150" value="Users&#xa;(from Model)" style="swimlane;fontStyle=1;align=center;verticalAlign=top;childLayout=stackLayout;horizontal=1;startSize=40;horizontalStack=0;resizeParent=1;resizeLast=0;collapsible=1;marginBottom=0;rounded=0;shadow=0;strokeWidth=1;" parent="WIyWlLk6GJQsqaUBKTNV-1" vertex="1">
          <mxGeometry y="240" width="130" height="50" as="geometry">
            <mxRectangle x="230" y="140" width="160" height="26" as="alternateBounds" />
          </mxGeometry>
        </mxCell>
        <mxCell id="fMrC4Mk5_JeurlQgKgX7-151" value=" " style="text;align=left;verticalAlign=top;spacingLeft=4;spacingRight=4;overflow=hidden;rotatable=0;points=[[0,0.5],[1,0.5]];portConstraint=eastwest;rounded=0;shadow=0;html=0;" parent="fMrC4Mk5_JeurlQgKgX7-150" vertex="1">
          <mxGeometry y="40" width="130" as="geometry" />
        </mxCell>
        <mxCell id="fMrC4Mk5_JeurlQgKgX7-152" value="" style="line;html=1;strokeWidth=1;align=left;verticalAlign=middle;spacingTop=-1;spacingLeft=3;spacingRight=3;rotatable=0;labelPosition=right;points=[];portConstraint=eastwest;" parent="fMrC4Mk5_JeurlQgKgX7-150" vertex="1">
          <mxGeometry y="40" width="130" height="8" as="geometry" />
        </mxCell>
        <mxCell id="fMrC4Mk5_JeurlQgKgX7-153" value="" style="endArrow=open;endSize=12;dashed=1;html=1;rounded=0;exitX=0;exitY=0.5;exitDx=0;exitDy=0;entryX=0.5;entryY=1;entryDx=0;entryDy=0;" parent="WIyWlLk6GJQsqaUBKTNV-1" source="fMrC4Mk5_JeurlQgKgX7-91" target="fMrC4Mk5_JeurlQgKgX7-150" edge="1">
          <mxGeometry width="160" relative="1" as="geometry">
            <mxPoint x="105" y="451" as="sourcePoint" />
            <mxPoint x="50" y="350" as="targetPoint" />
          </mxGeometry>
        </mxCell>
        <mxCell id="fMrC4Mk5_JeurlQgKgX7-154" value="Admin&#xa;(from Model)" style="swimlane;fontStyle=1;align=center;verticalAlign=top;childLayout=stackLayout;horizontal=1;startSize=40;horizontalStack=0;resizeParent=1;resizeLast=0;collapsible=1;marginBottom=0;rounded=0;shadow=0;strokeWidth=1;" parent="WIyWlLk6GJQsqaUBKTNV-1" vertex="1">
          <mxGeometry x="140" y="140" width="150" height="50" as="geometry">
            <mxRectangle x="230" y="140" width="160" height="26" as="alternateBounds" />
          </mxGeometry>
        </mxCell>
        <mxCell id="fMrC4Mk5_JeurlQgKgX7-155" value=" " style="text;align=left;verticalAlign=top;spacingLeft=4;spacingRight=4;overflow=hidden;rotatable=0;points=[[0,0.5],[1,0.5]];portConstraint=eastwest;rounded=0;shadow=0;html=0;" parent="fMrC4Mk5_JeurlQgKgX7-154" vertex="1">
          <mxGeometry y="40" width="150" as="geometry" />
        </mxCell>
        <mxCell id="fMrC4Mk5_JeurlQgKgX7-156" value="" style="line;html=1;strokeWidth=1;align=left;verticalAlign=middle;spacingTop=-1;spacingLeft=3;spacingRight=3;rotatable=0;labelPosition=right;points=[];portConstraint=eastwest;" parent="fMrC4Mk5_JeurlQgKgX7-154" vertex="1">
          <mxGeometry y="40" width="150" height="8" as="geometry" />
        </mxCell>
        <mxCell id="fMrC4Mk5_JeurlQgKgX7-157" value="" style="endArrow=open;endSize=12;dashed=1;html=1;rounded=0;exitX=0.5;exitY=0;exitDx=0;exitDy=0;entryX=0.5;entryY=1;entryDx=0;entryDy=0;" parent="WIyWlLk6GJQsqaUBKTNV-1" source="zkfFHV4jXpPFQw0GAbJ--13" target="fMrC4Mk5_JeurlQgKgX7-154" edge="1">
          <mxGeometry width="160" relative="1" as="geometry">
            <mxPoint x="205" y="374" as="sourcePoint" />
            <mxPoint x="75" y="300" as="targetPoint" />
          </mxGeometry>
        </mxCell>
        <mxCell id="fMrC4Mk5_JeurlQgKgX7-158" value="AdminPage&#xa;(from Views)" style="swimlane;fontStyle=1;align=center;verticalAlign=top;childLayout=stackLayout;horizontal=1;startSize=40;horizontalStack=0;resizeParent=1;resizeLast=0;collapsible=1;marginBottom=0;rounded=0;shadow=0;strokeWidth=1;" parent="WIyWlLk6GJQsqaUBKTNV-1" vertex="1">
          <mxGeometry x="340" y="140" width="180" height="50" as="geometry">
            <mxRectangle x="230" y="140" width="160" height="26" as="alternateBounds" />
          </mxGeometry>
        </mxCell>
        <mxCell id="fMrC4Mk5_JeurlQgKgX7-159" value=" " style="text;align=left;verticalAlign=top;spacingLeft=4;spacingRight=4;overflow=hidden;rotatable=0;points=[[0,0.5],[1,0.5]];portConstraint=eastwest;rounded=0;shadow=0;html=0;" parent="fMrC4Mk5_JeurlQgKgX7-158" vertex="1">
          <mxGeometry y="40" width="180" as="geometry" />
        </mxCell>
        <mxCell id="fMrC4Mk5_JeurlQgKgX7-160" value="" style="line;html=1;strokeWidth=1;align=left;verticalAlign=middle;spacingTop=-1;spacingLeft=3;spacingRight=3;rotatable=0;labelPosition=right;points=[];portConstraint=eastwest;" parent="fMrC4Mk5_JeurlQgKgX7-158" vertex="1">
          <mxGeometry y="40" width="180" height="8" as="geometry" />
        </mxCell>
        <mxCell id="fMrC4Mk5_JeurlQgKgX7-161" value="" style="endArrow=open;endSize=12;dashed=1;html=1;rounded=0;exitX=0.75;exitY=0;exitDx=0;exitDy=0;entryX=0.5;entryY=1;entryDx=0;entryDy=0;" parent="WIyWlLk6GJQsqaUBKTNV-1" source="zkfFHV4jXpPFQw0GAbJ--13" target="fMrC4Mk5_JeurlQgKgX7-158" edge="1">
          <mxGeometry width="160" relative="1" as="geometry">
            <mxPoint x="305" y="281" as="sourcePoint" />
            <mxPoint x="225" y="200" as="targetPoint" />
          </mxGeometry>
        </mxCell>
        <mxCell id="fMrC4Mk5_JeurlQgKgX7-164" value="Article&#xa;(from Model)" style="swimlane;fontStyle=1;align=center;verticalAlign=top;childLayout=stackLayout;horizontal=1;startSize=40;horizontalStack=0;resizeParent=1;resizeLast=0;collapsible=1;marginBottom=0;rounded=0;shadow=0;strokeWidth=1;" parent="WIyWlLk6GJQsqaUBKTNV-1" vertex="1">
          <mxGeometry x="1245" y="630" width="180" height="50" as="geometry">
            <mxRectangle x="230" y="140" width="160" height="26" as="alternateBounds" />
          </mxGeometry>
        </mxCell>
        <mxCell id="fMrC4Mk5_JeurlQgKgX7-165" value=" " style="text;align=left;verticalAlign=top;spacingLeft=4;spacingRight=4;overflow=hidden;rotatable=0;points=[[0,0.5],[1,0.5]];portConstraint=eastwest;rounded=0;shadow=0;html=0;" parent="fMrC4Mk5_JeurlQgKgX7-164" vertex="1">
          <mxGeometry y="40" width="180" as="geometry" />
        </mxCell>
        <mxCell id="fMrC4Mk5_JeurlQgKgX7-166" value="" style="line;html=1;strokeWidth=1;align=left;verticalAlign=middle;spacingTop=-1;spacingLeft=3;spacingRight=3;rotatable=0;labelPosition=right;points=[];portConstraint=eastwest;" parent="fMrC4Mk5_JeurlQgKgX7-164" vertex="1">
          <mxGeometry y="40" width="180" height="8" as="geometry" />
        </mxCell>
        <mxCell id="fMrC4Mk5_JeurlQgKgX7-168" value="" style="endArrow=open;endSize=12;dashed=1;html=1;rounded=0;entryX=0;entryY=0.25;entryDx=0;entryDy=0;exitX=1;exitY=0.5;exitDx=0;exitDy=0;" parent="WIyWlLk6GJQsqaUBKTNV-1" source="zkfFHV4jXpPFQw0GAbJ--18" target="fMrC4Mk5_JeurlQgKgX7-164" edge="1">
          <mxGeometry width="160" relative="1" as="geometry">
            <mxPoint x="1085" y="760" as="sourcePoint" />
            <mxPoint x="1181" y="847" as="targetPoint" />
          </mxGeometry>
        </mxCell>
        <mxCell id="fMrC4Mk5_JeurlQgKgX7-169" value="ArticlePage&#xa;(from Views)" style="swimlane;fontStyle=1;align=center;verticalAlign=top;childLayout=stackLayout;horizontal=1;startSize=40;horizontalStack=0;resizeParent=1;resizeLast=0;collapsible=1;marginBottom=0;rounded=0;shadow=0;strokeWidth=1;" parent="WIyWlLk6GJQsqaUBKTNV-1" vertex="1">
          <mxGeometry x="1235" y="730" width="180" height="50" as="geometry">
            <mxRectangle x="230" y="140" width="160" height="26" as="alternateBounds" />
          </mxGeometry>
        </mxCell>
        <mxCell id="fMrC4Mk5_JeurlQgKgX7-170" value=" " style="text;align=left;verticalAlign=top;spacingLeft=4;spacingRight=4;overflow=hidden;rotatable=0;points=[[0,0.5],[1,0.5]];portConstraint=eastwest;rounded=0;shadow=0;html=0;" parent="fMrC4Mk5_JeurlQgKgX7-169" vertex="1">
          <mxGeometry y="40" width="180" as="geometry" />
        </mxCell>
        <mxCell id="fMrC4Mk5_JeurlQgKgX7-171" value="" style="line;html=1;strokeWidth=1;align=left;verticalAlign=middle;spacingTop=-1;spacingLeft=3;spacingRight=3;rotatable=0;labelPosition=right;points=[];portConstraint=eastwest;" parent="fMrC4Mk5_JeurlQgKgX7-169" vertex="1">
          <mxGeometry y="40" width="180" height="8" as="geometry" />
        </mxCell>
        <mxCell id="fMrC4Mk5_JeurlQgKgX7-172" value="" style="endArrow=open;endSize=12;dashed=1;html=1;rounded=0;entryX=0;entryY=0.5;entryDx=0;entryDy=0;exitX=1.011;exitY=-0.202;exitDx=0;exitDy=0;exitPerimeter=0;" parent="WIyWlLk6GJQsqaUBKTNV-1" source="zkfFHV4jXpPFQw0GAbJ--24" target="fMrC4Mk5_JeurlQgKgX7-169" edge="1">
          <mxGeometry width="160" relative="1" as="geometry">
            <mxPoint x="1155" y="679" as="sourcePoint" />
            <mxPoint x="1255" y="629" as="targetPoint" />
          </mxGeometry>
        </mxCell>
        <mxCell id="fMrC4Mk5_JeurlQgKgX7-177" value="Shop&#xa;(from Model)" style="swimlane;fontStyle=1;align=center;verticalAlign=top;childLayout=stackLayout;horizontal=1;startSize=40;horizontalStack=0;resizeParent=1;resizeLast=0;collapsible=1;marginBottom=0;rounded=0;shadow=0;strokeWidth=1;" parent="WIyWlLk6GJQsqaUBKTNV-1" vertex="1">
          <mxGeometry x="930" y="70" width="180" height="50" as="geometry">
            <mxRectangle x="230" y="140" width="160" height="26" as="alternateBounds" />
          </mxGeometry>
        </mxCell>
        <mxCell id="fMrC4Mk5_JeurlQgKgX7-178" value=" " style="text;align=left;verticalAlign=top;spacingLeft=4;spacingRight=4;overflow=hidden;rotatable=0;points=[[0,0.5],[1,0.5]];portConstraint=eastwest;rounded=0;shadow=0;html=0;" parent="fMrC4Mk5_JeurlQgKgX7-177" vertex="1">
          <mxGeometry y="40" width="180" as="geometry" />
        </mxCell>
        <mxCell id="fMrC4Mk5_JeurlQgKgX7-179" value="" style="line;html=1;strokeWidth=1;align=left;verticalAlign=middle;spacingTop=-1;spacingLeft=3;spacingRight=3;rotatable=0;labelPosition=right;points=[];portConstraint=eastwest;" parent="fMrC4Mk5_JeurlQgKgX7-177" vertex="1">
          <mxGeometry y="40" width="180" height="8" as="geometry" />
        </mxCell>
        <mxCell id="fMrC4Mk5_JeurlQgKgX7-180" value="ShopPage&#xa;(from Views)" style="swimlane;fontStyle=1;align=center;verticalAlign=top;childLayout=stackLayout;horizontal=1;startSize=40;horizontalStack=0;resizeParent=1;resizeLast=0;collapsible=1;marginBottom=0;rounded=0;shadow=0;strokeWidth=1;" parent="WIyWlLk6GJQsqaUBKTNV-1" vertex="1">
          <mxGeometry x="1220" y="80" width="180" height="50" as="geometry">
            <mxRectangle x="230" y="140" width="160" height="26" as="alternateBounds" />
          </mxGeometry>
        </mxCell>
        <mxCell id="fMrC4Mk5_JeurlQgKgX7-181" value=" " style="text;align=left;verticalAlign=top;spacingLeft=4;spacingRight=4;overflow=hidden;rotatable=0;points=[[0,0.5],[1,0.5]];portConstraint=eastwest;rounded=0;shadow=0;html=0;" parent="fMrC4Mk5_JeurlQgKgX7-180" vertex="1">
          <mxGeometry y="40" width="180" as="geometry" />
        </mxCell>
        <mxCell id="fMrC4Mk5_JeurlQgKgX7-182" value="" style="line;html=1;strokeWidth=1;align=left;verticalAlign=middle;spacingTop=-1;spacingLeft=3;spacingRight=3;rotatable=0;labelPosition=right;points=[];portConstraint=eastwest;" parent="fMrC4Mk5_JeurlQgKgX7-180" vertex="1">
          <mxGeometry y="40" width="180" height="8" as="geometry" />
        </mxCell>
        <mxCell id="fMrC4Mk5_JeurlQgKgX7-186" value="" style="endArrow=open;endSize=12;dashed=1;html=1;rounded=0;entryX=0.5;entryY=1;entryDx=0;entryDy=0;exitX=0.5;exitY=0;exitDx=0;exitDy=0;" parent="WIyWlLk6GJQsqaUBKTNV-1" source="zkfFHV4jXpPFQw0GAbJ--6" target="fMrC4Mk5_JeurlQgKgX7-177" edge="1">
          <mxGeometry width="160" relative="1" as="geometry">
            <mxPoint x="1147" y="260" as="sourcePoint" />
            <mxPoint x="1247" y="210" as="targetPoint" />
          </mxGeometry>
        </mxCell>
        <mxCell id="fMrC4Mk5_JeurlQgKgX7-187" value="" style="endArrow=open;endSize=12;dashed=1;html=1;rounded=0;exitX=0.75;exitY=0;exitDx=0;exitDy=0;entryX=0;entryY=1;entryDx=0;entryDy=0;" parent="WIyWlLk6GJQsqaUBKTNV-1" source="zkfFHV4jXpPFQw0GAbJ--6" target="fMrC4Mk5_JeurlQgKgX7-180" edge="1">
          <mxGeometry width="160" relative="1" as="geometry">
            <mxPoint x="1340" y="659" as="sourcePoint" />
            <mxPoint x="1370" y="260" as="targetPoint" />
          </mxGeometry>
        </mxCell>
        <mxCell id="fMrC4Mk5_JeurlQgKgX7-188" value="Product&#xa;(from Model)" style="swimlane;fontStyle=1;align=center;verticalAlign=top;childLayout=stackLayout;horizontal=1;startSize=40;horizontalStack=0;resizeParent=1;resizeLast=0;collapsible=1;marginBottom=0;rounded=0;shadow=0;strokeWidth=1;" parent="WIyWlLk6GJQsqaUBKTNV-1" vertex="1">
          <mxGeometry x="1540" y="300" width="180" height="50" as="geometry">
            <mxRectangle x="230" y="140" width="160" height="26" as="alternateBounds" />
          </mxGeometry>
        </mxCell>
        <mxCell id="fMrC4Mk5_JeurlQgKgX7-189" value=" " style="text;align=left;verticalAlign=top;spacingLeft=4;spacingRight=4;overflow=hidden;rotatable=0;points=[[0,0.5],[1,0.5]];portConstraint=eastwest;rounded=0;shadow=0;html=0;" parent="fMrC4Mk5_JeurlQgKgX7-188" vertex="1">
          <mxGeometry y="40" width="180" as="geometry" />
        </mxCell>
        <mxCell id="fMrC4Mk5_JeurlQgKgX7-190" value="" style="line;html=1;strokeWidth=1;align=left;verticalAlign=middle;spacingTop=-1;spacingLeft=3;spacingRight=3;rotatable=0;labelPosition=right;points=[];portConstraint=eastwest;" parent="fMrC4Mk5_JeurlQgKgX7-188" vertex="1">
          <mxGeometry y="40" width="180" height="8" as="geometry" />
        </mxCell>
        <mxCell id="fMrC4Mk5_JeurlQgKgX7-191" value="ProductPage&#xa;(from Views)" style="swimlane;fontStyle=1;align=center;verticalAlign=top;childLayout=stackLayout;horizontal=1;startSize=40;horizontalStack=0;resizeParent=1;resizeLast=0;collapsible=1;marginBottom=0;rounded=0;shadow=0;strokeWidth=1;" parent="WIyWlLk6GJQsqaUBKTNV-1" vertex="1">
          <mxGeometry x="1580" y="410" width="180" height="50" as="geometry">
            <mxRectangle x="230" y="140" width="160" height="26" as="alternateBounds" />
          </mxGeometry>
        </mxCell>
        <mxCell id="fMrC4Mk5_JeurlQgKgX7-192" value=" " style="text;align=left;verticalAlign=top;spacingLeft=4;spacingRight=4;overflow=hidden;rotatable=0;points=[[0,0.5],[1,0.5]];portConstraint=eastwest;rounded=0;shadow=0;html=0;" parent="fMrC4Mk5_JeurlQgKgX7-191" vertex="1">
          <mxGeometry y="40" width="180" as="geometry" />
        </mxCell>
        <mxCell id="fMrC4Mk5_JeurlQgKgX7-193" value="" style="line;html=1;strokeWidth=1;align=left;verticalAlign=middle;spacingTop=-1;spacingLeft=3;spacingRight=3;rotatable=0;labelPosition=right;points=[];portConstraint=eastwest;" parent="fMrC4Mk5_JeurlQgKgX7-191" vertex="1">
          <mxGeometry y="40" width="180" height="8" as="geometry" />
        </mxCell>
        <mxCell id="fMrC4Mk5_JeurlQgKgX7-194" value="" style="endArrow=open;endSize=12;dashed=1;html=1;rounded=0;exitX=1;exitY=0;exitDx=0;exitDy=0;entryX=0.25;entryY=1;entryDx=0;entryDy=0;" parent="WIyWlLk6GJQsqaUBKTNV-1" source="fMrC4Mk5_JeurlQgKgX7-98" target="fMrC4Mk5_JeurlQgKgX7-188" edge="1">
          <mxGeometry width="160" relative="1" as="geometry">
            <mxPoint x="1205" y="299" as="sourcePoint" />
            <mxPoint x="1540" y="360" as="targetPoint" />
          </mxGeometry>
        </mxCell>
        <mxCell id="fMrC4Mk5_JeurlQgKgX7-195" value="" style="endArrow=open;endSize=12;dashed=1;html=1;rounded=0;exitX=1;exitY=0.5;exitDx=0;exitDy=0;entryX=0;entryY=0.5;entryDx=0;entryDy=0;" parent="WIyWlLk6GJQsqaUBKTNV-1" target="fMrC4Mk5_JeurlQgKgX7-191" edge="1">
          <mxGeometry width="160" relative="1" as="geometry">
            <mxPoint x="1530" y="463" as="sourcePoint" />
            <mxPoint x="1310" y="240" as="targetPoint" />
          </mxGeometry>
        </mxCell>
        <mxCell id="fMrC4Mk5_JeurlQgKgX7-198" value="SearchPage&#xa;(from Views)" style="swimlane;fontStyle=1;align=center;verticalAlign=top;childLayout=stackLayout;horizontal=1;startSize=40;horizontalStack=0;resizeParent=1;resizeLast=0;collapsible=1;marginBottom=0;rounded=0;shadow=0;strokeWidth=1;" parent="WIyWlLk6GJQsqaUBKTNV-1" vertex="1">
          <mxGeometry x="1330" y="270" width="180" height="50" as="geometry">
            <mxRectangle x="230" y="140" width="160" height="26" as="alternateBounds" />
          </mxGeometry>
        </mxCell>
        <mxCell id="fMrC4Mk5_JeurlQgKgX7-199" value=" " style="text;align=left;verticalAlign=top;spacingLeft=4;spacingRight=4;overflow=hidden;rotatable=0;points=[[0,0.5],[1,0.5]];portConstraint=eastwest;rounded=0;shadow=0;html=0;" parent="fMrC4Mk5_JeurlQgKgX7-198" vertex="1">
          <mxGeometry y="40" width="180" as="geometry" />
        </mxCell>
        <mxCell id="fMrC4Mk5_JeurlQgKgX7-200" value="" style="line;html=1;strokeWidth=1;align=left;verticalAlign=middle;spacingTop=-1;spacingLeft=3;spacingRight=3;rotatable=0;labelPosition=right;points=[];portConstraint=eastwest;" parent="fMrC4Mk5_JeurlQgKgX7-198" vertex="1">
          <mxGeometry y="40" width="180" height="8" as="geometry" />
        </mxCell>
        <mxCell id="fMrC4Mk5_JeurlQgKgX7-201" value="" style="endArrow=open;endSize=12;dashed=1;html=1;rounded=0;exitX=0.5;exitY=0;exitDx=0;exitDy=0;entryX=0.5;entryY=1;entryDx=0;entryDy=0;" parent="WIyWlLk6GJQsqaUBKTNV-1" source="fMrC4Mk5_JeurlQgKgX7-98" target="fMrC4Mk5_JeurlQgKgX7-198" edge="1">
          <mxGeometry width="160" relative="1" as="geometry">
            <mxPoint x="1540" y="400" as="sourcePoint" />
            <mxPoint x="1595" y="360" as="targetPoint" />
          </mxGeometry>
        </mxCell>
        <mxCell id="fMrC4Mk5_JeurlQgKgX7-203" value="Order&#xa;(from Model)" style="swimlane;fontStyle=1;align=center;verticalAlign=top;childLayout=stackLayout;horizontal=1;startSize=40;horizontalStack=0;resizeParent=1;resizeLast=0;collapsible=1;marginBottom=0;rounded=0;shadow=0;strokeWidth=1;" parent="WIyWlLk6GJQsqaUBKTNV-1" vertex="1">
          <mxGeometry x="605" y="960" width="180" height="50" as="geometry">
            <mxRectangle x="230" y="140" width="160" height="26" as="alternateBounds" />
          </mxGeometry>
        </mxCell>
        <mxCell id="fMrC4Mk5_JeurlQgKgX7-204" value=" " style="text;align=left;verticalAlign=top;spacingLeft=4;spacingRight=4;overflow=hidden;rotatable=0;points=[[0,0.5],[1,0.5]];portConstraint=eastwest;rounded=0;shadow=0;html=0;" parent="fMrC4Mk5_JeurlQgKgX7-203" vertex="1">
          <mxGeometry y="40" width="180" as="geometry" />
        </mxCell>
        <mxCell id="fMrC4Mk5_JeurlQgKgX7-205" value="" style="line;html=1;strokeWidth=1;align=left;verticalAlign=middle;spacingTop=-1;spacingLeft=3;spacingRight=3;rotatable=0;labelPosition=right;points=[];portConstraint=eastwest;" parent="fMrC4Mk5_JeurlQgKgX7-203" vertex="1">
          <mxGeometry y="40" width="180" height="8" as="geometry" />
        </mxCell>
        <mxCell id="fMrC4Mk5_JeurlQgKgX7-206" value="CustomerPage&#xa;(from Views)" style="swimlane;fontStyle=1;align=center;verticalAlign=top;childLayout=stackLayout;horizontal=1;startSize=40;horizontalStack=0;resizeParent=1;resizeLast=0;collapsible=1;marginBottom=0;rounded=0;shadow=0;strokeWidth=1;" parent="WIyWlLk6GJQsqaUBKTNV-1" vertex="1">
          <mxGeometry x="805" y="950" width="180" height="50" as="geometry">
            <mxRectangle x="230" y="140" width="160" height="26" as="alternateBounds" />
          </mxGeometry>
        </mxCell>
        <mxCell id="fMrC4Mk5_JeurlQgKgX7-207" value=" " style="text;align=left;verticalAlign=top;spacingLeft=4;spacingRight=4;overflow=hidden;rotatable=0;points=[[0,0.5],[1,0.5]];portConstraint=eastwest;rounded=0;shadow=0;html=0;" parent="fMrC4Mk5_JeurlQgKgX7-206" vertex="1">
          <mxGeometry y="40" width="180" as="geometry" />
        </mxCell>
        <mxCell id="fMrC4Mk5_JeurlQgKgX7-208" value="" style="line;html=1;strokeWidth=1;align=left;verticalAlign=middle;spacingTop=-1;spacingLeft=3;spacingRight=3;rotatable=0;labelPosition=right;points=[];portConstraint=eastwest;" parent="fMrC4Mk5_JeurlQgKgX7-206" vertex="1">
          <mxGeometry y="40" width="180" height="8" as="geometry" />
        </mxCell>
        <mxCell id="fMrC4Mk5_JeurlQgKgX7-209" value="" style="endArrow=open;endSize=12;dashed=1;html=1;rounded=0;entryX=0.5;entryY=0;entryDx=0;entryDy=0;exitX=0.25;exitY=1;exitDx=0;exitDy=0;" parent="WIyWlLk6GJQsqaUBKTNV-1" source="fMrC4Mk5_JeurlQgKgX7-61" target="fMrC4Mk5_JeurlQgKgX7-203" edge="1">
          <mxGeometry width="160" relative="1" as="geometry">
            <mxPoint x="595" y="790" as="sourcePoint" />
            <mxPoint x="698" y="896" as="targetPoint" />
          </mxGeometry>
        </mxCell>
        <mxCell id="fMrC4Mk5_JeurlQgKgX7-210" value="" style="endArrow=open;endSize=12;dashed=1;html=1;rounded=0;entryX=0.5;entryY=0;entryDx=0;entryDy=0;exitX=0.75;exitY=1;exitDx=0;exitDy=0;" parent="WIyWlLk6GJQsqaUBKTNV-1" source="fMrC4Mk5_JeurlQgKgX7-61" target="fMrC4Mk5_JeurlQgKgX7-206" edge="1">
          <mxGeometry width="160" relative="1" as="geometry">
            <mxPoint x="502" y="824" as="sourcePoint" />
            <mxPoint x="605" y="930" as="targetPoint" />
          </mxGeometry>
        </mxCell>
        <mxCell id="Akci75qek_JRG4G3-tMm-6" value="ShopPage&#xa;(from Views)" style="swimlane;fontStyle=1;align=center;verticalAlign=top;childLayout=stackLayout;horizontal=1;startSize=40;horizontalStack=0;resizeParent=1;resizeLast=0;collapsible=1;marginBottom=0;rounded=0;shadow=0;strokeWidth=1;" parent="WIyWlLk6GJQsqaUBKTNV-1" vertex="1">
          <mxGeometry x="900" y="880" width="180" height="50" as="geometry">
            <mxRectangle x="230" y="140" width="160" height="26" as="alternateBounds" />
          </mxGeometry>
        </mxCell>
        <mxCell id="Akci75qek_JRG4G3-tMm-7" value=" " style="text;align=left;verticalAlign=top;spacingLeft=4;spacingRight=4;overflow=hidden;rotatable=0;points=[[0,0.5],[1,0.5]];portConstraint=eastwest;rounded=0;shadow=0;html=0;" parent="Akci75qek_JRG4G3-tMm-6" vertex="1">
          <mxGeometry y="40" width="180" as="geometry" />
        </mxCell>
        <mxCell id="Akci75qek_JRG4G3-tMm-8" value="" style="line;html=1;strokeWidth=1;align=left;verticalAlign=middle;spacingTop=-1;spacingLeft=3;spacingRight=3;rotatable=0;labelPosition=right;points=[];portConstraint=eastwest;" parent="Akci75qek_JRG4G3-tMm-6" vertex="1">
          <mxGeometry y="40" width="180" height="8" as="geometry" />
        </mxCell>
        <mxCell id="Akci75qek_JRG4G3-tMm-9" style="rounded=0;orthogonalLoop=1;jettySize=auto;html=1;entryX=0.5;entryY=0;entryDx=0;entryDy=0;exitX=1;exitY=0.5;exitDx=0;exitDy=0;dashed=1;endArrow=open;endFill=0;" parent="WIyWlLk6GJQsqaUBKTNV-1" source="fMrC4Mk5_JeurlQgKgX7-211" target="Akci75qek_JRG4G3-tMm-6" edge="1">
          <mxGeometry relative="1" as="geometry" />
        </mxCell>
        <mxCell id="Akci75qek_JRG4G3-tMm-13" value="CustomerPage&#xa;(from Views)" style="swimlane;fontStyle=1;align=center;verticalAlign=top;childLayout=stackLayout;horizontal=1;startSize=40;horizontalStack=0;resizeParent=1;resizeLast=0;collapsible=1;marginBottom=0;rounded=0;shadow=0;strokeWidth=1;" parent="WIyWlLk6GJQsqaUBKTNV-1" vertex="1">
          <mxGeometry x="120" y="580" width="180" height="50" as="geometry">
            <mxRectangle x="230" y="140" width="160" height="26" as="alternateBounds" />
          </mxGeometry>
        </mxCell>
        <mxCell id="Akci75qek_JRG4G3-tMm-14" value=" " style="text;align=left;verticalAlign=top;spacingLeft=4;spacingRight=4;overflow=hidden;rotatable=0;points=[[0,0.5],[1,0.5]];portConstraint=eastwest;rounded=0;shadow=0;html=0;" parent="Akci75qek_JRG4G3-tMm-13" vertex="1">
          <mxGeometry y="40" width="180" as="geometry" />
        </mxCell>
        <mxCell id="Akci75qek_JRG4G3-tMm-15" value="" style="line;html=1;strokeWidth=1;align=left;verticalAlign=middle;spacingTop=-1;spacingLeft=3;spacingRight=3;rotatable=0;labelPosition=right;points=[];portConstraint=eastwest;" parent="Akci75qek_JRG4G3-tMm-13" vertex="1">
          <mxGeometry y="40" width="180" height="8" as="geometry" />
        </mxCell>
        <mxCell id="Akci75qek_JRG4G3-tMm-16" style="rounded=0;orthogonalLoop=1;jettySize=auto;html=1;entryX=1;entryY=0.5;entryDx=0;entryDy=0;exitX=0;exitY=0.5;exitDx=0;exitDy=0;dashed=1;endArrow=open;endFill=0;" parent="WIyWlLk6GJQsqaUBKTNV-1" source="fMrC4Mk5_JeurlQgKgX7-1" target="Akci75qek_JRG4G3-tMm-13" edge="1">
          <mxGeometry relative="1" as="geometry" />
        </mxCell>
        <mxCell id="X-SuICFl89NwzLNnwC1H-0" value="1" style="endArrow=open;html=1;endSize=12;startArrow=diamondThin;startSize=14;startFill=0;edgeStyle=orthogonalEdgeStyle;align=left;verticalAlign=bottom;rounded=0;" parent="WIyWlLk6GJQsqaUBKTNV-1" target="zkfFHV4jXpPFQw0GAbJ--13" edge="1">
          <mxGeometry x="-1" y="3" relative="1" as="geometry">
            <mxPoint x="604.9999999999998" y="418.0526315789474" as="sourcePoint" />
            <mxPoint x="630" y="450" as="targetPoint" />
          </mxGeometry>
        </mxCell>
        <mxCell id="X-SuICFl89NwzLNnwC1H-1" value="1" style="endArrow=open;html=1;endSize=12;startArrow=diamondThin;startSize=14;startFill=0;edgeStyle=orthogonalEdgeStyle;align=left;verticalAlign=bottom;rounded=0;" parent="WIyWlLk6GJQsqaUBKTNV-1" target="zkfFHV4jXpPFQw0GAbJ--0" edge="1">
          <mxGeometry x="-1" y="3" relative="1" as="geometry">
            <mxPoint x="604.9999999999998" y="418.0526315789474" as="sourcePoint" />
            <mxPoint x="405" y="371" as="targetPoint" />
          </mxGeometry>
        </mxCell>
        <mxCell id="X-SuICFl89NwzLNnwC1H-2" value="1" style="endArrow=open;html=1;endSize=12;startArrow=diamondThin;startSize=14;startFill=0;edgeStyle=orthogonalEdgeStyle;align=left;verticalAlign=bottom;rounded=0;" parent="WIyWlLk6GJQsqaUBKTNV-1" target="zkfFHV4jXpPFQw0GAbJ--6" edge="1">
          <mxGeometry x="-1" y="3" relative="1" as="geometry">
            <mxPoint x="775" y="418.0526315789474" as="sourcePoint" />
            <mxPoint x="415" y="381" as="targetPoint" />
          </mxGeometry>
        </mxCell>
        <mxCell id="X-SuICFl89NwzLNnwC1H-3" value="1" style="endArrow=open;html=1;endSize=12;startArrow=diamondThin;startSize=14;startFill=0;edgeStyle=orthogonalEdgeStyle;align=left;verticalAlign=bottom;rounded=0;" parent="WIyWlLk6GJQsqaUBKTNV-1" source="fMrC4Mk5_JeurlQgKgX7-83" target="fMrC4Mk5_JeurlQgKgX7-98" edge="1">
          <mxGeometry x="-1" y="3" relative="1" as="geometry">
            <mxPoint x="785" y="459" as="sourcePoint" />
            <mxPoint x="1040" y="307" as="targetPoint" />
            <Array as="points">
              <mxPoint x="1050" y="450" />
              <mxPoint x="1050" y="495" />
            </Array>
          </mxGeometry>
        </mxCell>
        <mxCell id="X-SuICFl89NwzLNnwC1H-4" value="1" style="endArrow=open;html=1;endSize=12;startArrow=diamondThin;startSize=14;startFill=0;edgeStyle=orthogonalEdgeStyle;align=left;verticalAlign=bottom;rounded=0;" parent="WIyWlLk6GJQsqaUBKTNV-1" source="fMrC4Mk5_JeurlQgKgX7-83" target="zkfFHV4jXpPFQw0GAbJ--17" edge="1">
          <mxGeometry x="-1" y="3" relative="1" as="geometry">
            <mxPoint x="785" y="459" as="sourcePoint" />
            <mxPoint x="1330" y="455" as="targetPoint" />
            <Array as="points">
              <mxPoint x="1050" y="450" />
            </Array>
          </mxGeometry>
        </mxCell>
        <mxCell id="X-SuICFl89NwzLNnwC1H-5" value="1" style="endArrow=open;html=1;endSize=12;startArrow=diamondThin;startSize=14;startFill=0;edgeStyle=orthogonalEdgeStyle;align=left;verticalAlign=bottom;rounded=0;entryX=0.5;entryY=0;entryDx=0;entryDy=0;" parent="WIyWlLk6GJQsqaUBKTNV-1" source="fMrC4Mk5_JeurlQgKgX7-83" target="fMrC4Mk5_JeurlQgKgX7-61" edge="1">
          <mxGeometry x="-1" y="3" relative="1" as="geometry">
            <mxPoint x="800" y="480" as="sourcePoint" />
            <mxPoint x="1340" y="465" as="targetPoint" />
            <Array as="points">
              <mxPoint x="850" y="449" />
              <mxPoint x="850" y="590" />
              <mxPoint x="765" y="590" />
            </Array>
          </mxGeometry>
        </mxCell>
      </root>
    </mxGraphModel>
  </diagram>
  <diagram id="tokOLUjDkqkn9wSPs5vG" name="Page-2">
    <mxGraphModel dx="1791" dy="1553" grid="1" gridSize="10" guides="1" tooltips="1" connect="1" arrows="1" fold="1" page="1" pageScale="1" pageWidth="850" pageHeight="1100" math="0" shadow="0">
      <root>
        <mxCell id="0" />
        <mxCell id="1" parent="0" />
        <mxCell id="rm3jaWlkkU7YF9_rTVwL-1" value="Client browser" style="shape=folder;fontStyle=1;spacingTop=10;tabWidth=40;tabHeight=14;tabPosition=left;html=1;whiteSpace=wrap;" parent="1" vertex="1">
          <mxGeometry x="-110" y="205" width="110" height="60" as="geometry" />
        </mxCell>
        <mxCell id="rm3jaWlkkU7YF9_rTVwL-2" value="&lt;b&gt;Server&lt;/b&gt;" style="shape=umlFrame;whiteSpace=wrap;html=1;pointerEvents=0;width=110;height=30;" parent="1" vertex="1">
          <mxGeometry x="30" y="-20" width="890" height="470" as="geometry" />
        </mxCell>
        <mxCell id="eM4sCDxInWaTErPFrOKH-45" value="" style="group" parent="1" vertex="1" connectable="0">
          <mxGeometry x="520" y="170" width="150" height="170" as="geometry" />
        </mxCell>
        <mxCell id="eM4sCDxInWaTErPFrOKH-44" value="" style="shape=folder;fontStyle=1;spacingTop=10;tabWidth=100;tabHeight=30;tabPosition=left;html=1;whiteSpace=wrap;" parent="eM4sCDxInWaTErPFrOKH-45" vertex="1">
          <mxGeometry width="150" height="170" as="geometry" />
        </mxCell>
        <mxCell id="eM4sCDxInWaTErPFrOKH-46" value="Controller" style="text;align=center;fontStyle=1;verticalAlign=middle;spacingLeft=3;spacingRight=3;strokeColor=none;rotatable=0;points=[[0,0.5],[1,0.5]];portConstraint=eastwest;html=1;" parent="eM4sCDxInWaTErPFrOKH-45" vertex="1">
          <mxGeometry x="30" width="45.45454545454545" height="25.5" as="geometry" />
        </mxCell>
        <mxCell id="YhjGTcJZftRQGAtqRd_U-1" value="&lt;span style=&quot;color: rgb(0, 0, 0); font-family: Helvetica; font-size: 12px; font-style: normal; font-variant-ligatures: normal; font-variant-caps: normal; font-weight: 400; letter-spacing: normal; orphans: 2; text-align: left; text-indent: 0px; text-transform: none; widows: 2; word-spacing: 0px; -webkit-text-stroke-width: 0px; background-color: rgb(251, 251, 251); text-decoration-thickness: initial; text-decoration-style: initial; text-decoration-color: initial; float: none; display: inline !important;&quot;&gt;+ ShopController&lt;/span&gt;&lt;br style=&quot;border-color: var(--border-color); color: rgb(0, 0, 0); font-family: Helvetica; font-size: 12px; font-style: normal; font-variant-ligatures: normal; font-variant-caps: normal; font-weight: 400; letter-spacing: normal; orphans: 2; text-align: left; text-indent: 0px; text-transform: none; widows: 2; word-spacing: 0px; -webkit-text-stroke-width: 0px; background-color: rgb(251, 251, 251); text-decoration-thickness: initial; text-decoration-style: initial; text-decoration-color: initial;&quot;&gt;&lt;span style=&quot;color: rgb(0, 0, 0); font-family: Helvetica; font-size: 12px; font-style: normal; font-variant-ligatures: normal; font-variant-caps: normal; font-weight: 400; letter-spacing: normal; orphans: 2; text-align: left; text-indent: 0px; text-transform: none; widows: 2; word-spacing: 0px; -webkit-text-stroke-width: 0px; background-color: rgb(251, 251, 251); text-decoration-thickness: initial; text-decoration-style: initial; text-decoration-color: initial; float: none; display: inline !important;&quot;&gt;+ ArticleController&lt;/span&gt;&lt;br style=&quot;border-color: var(--border-color); color: rgb(0, 0, 0); font-family: Helvetica; font-size: 12px; font-style: normal; font-variant-ligatures: normal; font-variant-caps: normal; font-weight: 400; letter-spacing: normal; orphans: 2; text-align: left; text-indent: 0px; text-transform: none; widows: 2; word-spacing: 0px; -webkit-text-stroke-width: 0px; background-color: rgb(251, 251, 251); text-decoration-thickness: initial; text-decoration-style: initial; text-decoration-color: initial;&quot;&gt;&lt;span style=&quot;color: rgb(0, 0, 0); font-family: Helvetica; font-size: 12px; font-style: normal; font-variant-ligatures: normal; font-variant-caps: normal; font-weight: 400; letter-spacing: normal; orphans: 2; text-align: left; text-indent: 0px; text-transform: none; widows: 2; word-spacing: 0px; -webkit-text-stroke-width: 0px; background-color: rgb(251, 251, 251); text-decoration-thickness: initial; text-decoration-style: initial; text-decoration-color: initial; float: none; display: inline !important;&quot;&gt;+ ProductController&lt;/span&gt;&lt;br style=&quot;border-color: var(--border-color); color: rgb(0, 0, 0); font-family: Helvetica; font-size: 12px; font-style: normal; font-variant-ligatures: normal; font-variant-caps: normal; font-weight: 400; letter-spacing: normal; orphans: 2; text-align: left; text-indent: 0px; text-transform: none; widows: 2; word-spacing: 0px; -webkit-text-stroke-width: 0px; background-color: rgb(251, 251, 251); text-decoration-thickness: initial; text-decoration-style: initial; text-decoration-color: initial;&quot;&gt;&lt;span style=&quot;color: rgb(0, 0, 0); font-family: Helvetica; font-size: 12px; font-style: normal; font-variant-ligatures: normal; font-variant-caps: normal; font-weight: 400; letter-spacing: normal; orphans: 2; text-align: left; text-indent: 0px; text-transform: none; widows: 2; word-spacing: 0px; -webkit-text-stroke-width: 0px; background-color: rgb(251, 251, 251); text-decoration-thickness: initial; text-decoration-style: initial; text-decoration-color: initial; float: none; display: inline !important;&quot;&gt;+ OrderController&lt;/span&gt;&lt;br style=&quot;border-color: var(--border-color); color: rgb(0, 0, 0); font-family: Helvetica; font-size: 12px; font-style: normal; font-variant-ligatures: normal; font-variant-caps: normal; font-weight: 400; letter-spacing: normal; orphans: 2; text-align: left; text-indent: 0px; text-transform: none; widows: 2; word-spacing: 0px; -webkit-text-stroke-width: 0px; background-color: rgb(251, 251, 251); text-decoration-thickness: initial; text-decoration-style: initial; text-decoration-color: initial;&quot;&gt;&lt;span style=&quot;color: rgb(0, 0, 0); font-family: Helvetica; font-size: 12px; font-style: normal; font-variant-ligatures: normal; font-variant-caps: normal; font-weight: 400; letter-spacing: normal; orphans: 2; text-align: left; text-indent: 0px; text-transform: none; widows: 2; word-spacing: 0px; -webkit-text-stroke-width: 0px; background-color: rgb(251, 251, 251); text-decoration-thickness: initial; text-decoration-style: initial; text-decoration-color: initial; float: none; display: inline !important;&quot;&gt;+ UserController&lt;/span&gt;&lt;br style=&quot;border-color: var(--border-color); color: rgb(0, 0, 0); font-family: Helvetica; font-size: 12px; font-style: normal; font-variant-ligatures: normal; font-variant-caps: normal; font-weight: 400; letter-spacing: normal; orphans: 2; text-align: left; text-indent: 0px; text-transform: none; widows: 2; word-spacing: 0px; -webkit-text-stroke-width: 0px; background-color: rgb(251, 251, 251); text-decoration-thickness: initial; text-decoration-style: initial; text-decoration-color: initial;&quot;&gt;&lt;span style=&quot;color: rgb(0, 0, 0); font-family: Helvetica; font-size: 12px; font-style: normal; font-variant-ligatures: normal; font-variant-caps: normal; font-weight: 400; letter-spacing: normal; orphans: 2; text-align: left; text-indent: 0px; text-transform: none; widows: 2; word-spacing: 0px; -webkit-text-stroke-width: 0px; background-color: rgb(251, 251, 251); text-decoration-thickness: initial; text-decoration-style: initial; text-decoration-color: initial; float: none; display: inline !important;&quot;&gt;+ AdminController&lt;/span&gt;" style="text;whiteSpace=wrap;html=1;" parent="eM4sCDxInWaTErPFrOKH-45" vertex="1">
          <mxGeometry x="4.55" y="51" width="115.45" height="93.5" as="geometry" />
        </mxCell>
        <mxCell id="eM4sCDxInWaTErPFrOKH-53" value="" style="group" parent="1" vertex="1" connectable="0">
          <mxGeometry x="710" y="170" width="160" height="170" as="geometry" />
        </mxCell>
        <mxCell id="eM4sCDxInWaTErPFrOKH-54" value="&lt;div style=&quot;&quot;&gt;&lt;span style=&quot;font-weight: normal; background-color: initial;&quot;&gt;+ Order&lt;/span&gt;&lt;/div&gt;&lt;span style=&quot;font-weight: normal;&quot;&gt;&lt;div style=&quot;&quot;&gt;&lt;span style=&quot;background-color: initial;&quot;&gt;+ Order_Detail&lt;/span&gt;&lt;/div&gt;&lt;div style=&quot;&quot;&gt;&lt;span style=&quot;background-color: initial;&quot;&gt;+ Product&lt;/span&gt;&lt;/div&gt;&lt;div style=&quot;&quot;&gt;&lt;span style=&quot;background-color: initial;&quot;&gt;+ Shop&lt;/span&gt;&lt;/div&gt;&lt;div style=&quot;&quot;&gt;&lt;span style=&quot;background-color: initial;&quot;&gt;+ User&lt;/span&gt;&lt;/div&gt;&lt;div style=&quot;&quot;&gt;&lt;span style=&quot;background-color: initial;&quot;&gt;+ Article&lt;/span&gt;&lt;/div&gt;&lt;/span&gt;" style="shape=folder;fontStyle=1;spacingTop=10;tabWidth=100;tabHeight=30;tabPosition=left;html=1;whiteSpace=wrap;align=left;" parent="eM4sCDxInWaTErPFrOKH-53" vertex="1">
          <mxGeometry width="160" height="170" as="geometry" />
        </mxCell>
        <mxCell id="eM4sCDxInWaTErPFrOKH-55" value="Model" style="text;align=center;fontStyle=1;verticalAlign=middle;spacingLeft=3;spacingRight=3;strokeColor=none;rotatable=0;points=[[0,0.5],[1,0.5]];portConstraint=eastwest;html=1;" parent="eM4sCDxInWaTErPFrOKH-53" vertex="1">
          <mxGeometry width="114.28571428571428" height="34" as="geometry" />
        </mxCell>
        <mxCell id="eM4sCDxInWaTErPFrOKH-62" value="" style="group" parent="1" vertex="1" connectable="0">
          <mxGeometry x="130" y="105" width="240" height="260" as="geometry" />
        </mxCell>
        <mxCell id="eM4sCDxInWaTErPFrOKH-56" value="" style="group" parent="eM4sCDxInWaTErPFrOKH-62" vertex="1" connectable="0">
          <mxGeometry width="240" height="260" as="geometry" />
        </mxCell>
        <mxCell id="eM4sCDxInWaTErPFrOKH-61" value="" style="group" parent="eM4sCDxInWaTErPFrOKH-56" vertex="1" connectable="0">
          <mxGeometry width="240" height="260" as="geometry" />
        </mxCell>
        <mxCell id="eM4sCDxInWaTErPFrOKH-57" value="&lt;div style=&quot;&quot;&gt;&lt;br&gt;&lt;/div&gt;" style="shape=folder;fontStyle=1;spacingTop=10;tabWidth=100;tabHeight=30;tabPosition=left;html=1;whiteSpace=wrap;align=left;" parent="eM4sCDxInWaTErPFrOKH-61" vertex="1">
          <mxGeometry width="240" height="260" as="geometry" />
        </mxCell>
        <mxCell id="eM4sCDxInWaTErPFrOKH-58" value="View" style="text;align=center;fontStyle=1;verticalAlign=middle;spacingLeft=3;spacingRight=3;strokeColor=none;rotatable=0;points=[[0,0.5],[1,0.5]];portConstraint=eastwest;html=1;" parent="eM4sCDxInWaTErPFrOKH-61" vertex="1">
          <mxGeometry y="-7.878787878787879" width="100" height="39.07878787878788" as="geometry" />
        </mxCell>
        <mxCell id="eM4sCDxInWaTErPFrOKH-59" value="&#xa;&lt;div style=&quot;border-color: var(--border-color); color: rgb(0, 0, 0); font-family: Helvetica; font-size: 12px; font-style: normal; font-variant-ligatures: normal; font-variant-caps: normal; font-weight: 700; letter-spacing: normal; orphans: 2; text-align: left; text-indent: 0px; text-transform: none; widows: 2; word-spacing: 0px; -webkit-text-stroke-width: 0px; background-color: rgb(251, 251, 251); text-decoration-thickness: initial; text-decoration-style: initial; text-decoration-color: initial;&quot;&gt;&lt;span style=&quot;border-color: var(--border-color); font-weight: 400;&quot;&gt;+ App.js&lt;/span&gt;&lt;/div&gt;&lt;div style=&quot;border-color: var(--border-color); color: rgb(0, 0, 0); font-family: Helvetica; font-size: 12px; font-style: normal; font-variant-ligatures: normal; font-variant-caps: normal; font-weight: 700; letter-spacing: normal; orphans: 2; text-align: left; text-indent: 0px; text-transform: none; widows: 2; word-spacing: 0px; -webkit-text-stroke-width: 0px; background-color: rgb(251, 251, 251); text-decoration-thickness: initial; text-decoration-style: initial; text-decoration-color: initial;&quot;&gt;&lt;span style=&quot;border-color: var(--border-color); font-weight: 400;&quot;&gt;+ Navbar.js&lt;/span&gt;&lt;/div&gt;&lt;div style=&quot;border-color: var(--border-color); color: rgb(0, 0, 0); font-family: Helvetica; font-size: 12px; font-style: normal; font-variant-ligatures: normal; font-variant-caps: normal; font-weight: 700; letter-spacing: normal; orphans: 2; text-align: left; text-indent: 0px; text-transform: none; widows: 2; word-spacing: 0px; -webkit-text-stroke-width: 0px; background-color: rgb(251, 251, 251); text-decoration-thickness: initial; text-decoration-style: initial; text-decoration-color: initial;&quot;&gt;&lt;span style=&quot;border-color: var(--border-color); font-weight: 400;&quot;&gt;+ Footer.js&lt;/span&gt;&lt;/div&gt;&lt;div style=&quot;border-color: var(--border-color); color: rgb(0, 0, 0); font-family: Helvetica; font-size: 12px; font-style: normal; font-variant-ligatures: normal; font-variant-caps: normal; font-weight: 700; letter-spacing: normal; orphans: 2; text-align: left; text-indent: 0px; text-transform: none; widows: 2; word-spacing: 0px; -webkit-text-stroke-width: 0px; background-color: rgb(251, 251, 251); text-decoration-thickness: initial; text-decoration-style: initial; text-decoration-color: initial;&quot;&gt;&lt;span style=&quot;border-color: var(--border-color); font-weight: 400;&quot;&gt;+ ArticlesPage.js&lt;/span&gt;&lt;/div&gt;&lt;div style=&quot;border-color: var(--border-color); color: rgb(0, 0, 0); font-family: Helvetica; font-size: 12px; font-style: normal; font-variant-ligatures: normal; font-variant-caps: normal; font-weight: 700; letter-spacing: normal; orphans: 2; text-align: left; text-indent: 0px; text-transform: none; widows: 2; word-spacing: 0px; -webkit-text-stroke-width: 0px; background-color: rgb(251, 251, 251); text-decoration-thickness: initial; text-decoration-style: initial; text-decoration-color: initial;&quot;&gt;&lt;span style=&quot;border-color: var(--border-color); font-weight: 400;&quot;&gt;+ LoginPage.js&lt;/span&gt;&lt;/div&gt;&lt;div style=&quot;border-color: var(--border-color); color: rgb(0, 0, 0); font-family: Helvetica; font-size: 12px; font-style: normal; font-variant-ligatures: normal; font-variant-caps: normal; font-weight: 700; letter-spacing: normal; orphans: 2; text-align: left; text-indent: 0px; text-transform: none; widows: 2; word-spacing: 0px; -webkit-text-stroke-width: 0px; background-color: rgb(251, 251, 251); text-decoration-thickness: initial; text-decoration-style: initial; text-decoration-color: initial;&quot;&gt;&lt;span style=&quot;border-color: var(--border-color); font-weight: 400;&quot;&gt;+ CartPage.js&lt;/span&gt;&lt;/div&gt;&lt;div style=&quot;border-color: var(--border-color); color: rgb(0, 0, 0); font-family: Helvetica; font-size: 12px; font-style: normal; font-variant-ligatures: normal; font-variant-caps: normal; font-weight: 700; letter-spacing: normal; orphans: 2; text-align: left; text-indent: 0px; text-transform: none; widows: 2; word-spacing: 0px; -webkit-text-stroke-width: 0px; background-color: rgb(251, 251, 251); text-decoration-thickness: initial; text-decoration-style: initial; text-decoration-color: initial;&quot;&gt;&lt;span style=&quot;border-color: var(--border-color); font-weight: 400;&quot;&gt;+ SignupPage.js&lt;/span&gt;&lt;/div&gt;&lt;div style=&quot;border-color: var(--border-color); color: rgb(0, 0, 0); font-family: Helvetica; font-size: 12px; font-style: normal; font-variant-ligatures: normal; font-variant-caps: normal; font-weight: 700; letter-spacing: normal; orphans: 2; text-align: left; text-indent: 0px; text-transform: none; widows: 2; word-spacing: 0px; -webkit-text-stroke-width: 0px; background-color: rgb(251, 251, 251); text-decoration-thickness: initial; text-decoration-style: initial; text-decoration-color: initial;&quot;&gt;&lt;span style=&quot;border-color: var(--border-color); font-weight: 400;&quot;&gt;+ HomePage.js&lt;/span&gt;&lt;/div&gt;&lt;div style=&quot;border-color: var(--border-color); color: rgb(0, 0, 0); font-family: Helvetica; font-size: 12px; font-style: normal; font-variant-ligatures: normal; font-variant-caps: normal; font-weight: 700; letter-spacing: normal; orphans: 2; text-align: left; text-indent: 0px; text-transform: none; widows: 2; word-spacing: 0px; -webkit-text-stroke-width: 0px; background-color: rgb(251, 251, 251); text-decoration-thickness: initial; text-decoration-style: initial; text-decoration-color: initial;&quot;&gt;&lt;span style=&quot;border-color: var(--border-color); font-weight: 400;&quot;&gt;+ SearchPage.js&lt;/span&gt;&lt;/div&gt;&lt;div style=&quot;border-color: var(--border-color); color: rgb(0, 0, 0); font-family: Helvetica; font-size: 12px; font-style: normal; font-variant-ligatures: normal; font-variant-caps: normal; font-weight: 700; letter-spacing: normal; orphans: 2; text-align: left; text-indent: 0px; text-transform: none; widows: 2; word-spacing: 0px; -webkit-text-stroke-width: 0px; background-color: rgb(251, 251, 251); text-decoration-thickness: initial; text-decoration-style: initial; text-decoration-color: initial;&quot;&gt;&lt;span style=&quot;border-color: var(--border-color); font-weight: 400;&quot;&gt;+ ProfilePage.js&lt;/span&gt;&lt;/div&gt;&lt;div style=&quot;border-color: var(--border-color); color: rgb(0, 0, 0); font-family: Helvetica; font-size: 12px; font-style: normal; font-variant-ligatures: normal; font-variant-caps: normal; font-weight: 700; letter-spacing: normal; orphans: 2; text-align: left; text-indent: 0px; text-transform: none; widows: 2; word-spacing: 0px; -webkit-text-stroke-width: 0px; background-color: rgb(251, 251, 251); text-decoration-thickness: initial; text-decoration-style: initial; text-decoration-color: initial;&quot;&gt;&lt;span style=&quot;border-color: var(--border-color); font-weight: 400;&quot;&gt;+ ProductPage.js&lt;/span&gt;&lt;/div&gt;&lt;div style=&quot;border-color: var(--border-color); color: rgb(0, 0, 0); font-family: Helvetica; font-size: 12px; font-style: normal; font-variant-ligatures: normal; font-variant-caps: normal; font-weight: 700; letter-spacing: normal; orphans: 2; text-align: left; text-indent: 0px; text-transform: none; widows: 2; word-spacing: 0px; -webkit-text-stroke-width: 0px; background-color: rgb(251, 251, 251); text-decoration-thickness: initial; text-decoration-style: initial; text-decoration-color: initial;&quot;&gt;&lt;span style=&quot;border-color: var(--border-color); font-weight: 400;&quot;&gt;+ CustomerPage.js&lt;/span&gt;&lt;/div&gt;&lt;div style=&quot;border-color: var(--border-color); color: rgb(0, 0, 0); font-family: Helvetica; font-size: 12px; font-style: normal; font-variant-ligatures: normal; font-variant-caps: normal; font-weight: 700; letter-spacing: normal; orphans: 2; text-align: left; text-indent: 0px; text-transform: none; widows: 2; word-spacing: 0px; -webkit-text-stroke-width: 0px; background-color: rgb(251, 251, 251); text-decoration-thickness: initial; text-decoration-style: initial; text-decoration-color: initial;&quot;&gt;&lt;span style=&quot;border-color: var(--border-color); font-weight: 400;&quot;&gt;+ ShopPage.js&lt;/span&gt;&lt;/div&gt;&lt;div style=&quot;border-color: var(--border-color); color: rgb(0, 0, 0); font-family: Helvetica; font-size: 12px; font-style: normal; font-variant-ligatures: normal; font-variant-caps: normal; font-weight: 700; letter-spacing: normal; orphans: 2; text-align: left; text-indent: 0px; text-transform: none; widows: 2; word-spacing: 0px; -webkit-text-stroke-width: 0px; background-color: rgb(251, 251, 251); text-decoration-thickness: initial; text-decoration-style: initial; text-decoration-color: initial;&quot;&gt;&lt;span style=&quot;border-color: var(--border-color); font-weight: 400;&quot;&gt;+ AdminPage.js&lt;/span&gt;&lt;/div&gt;&#xa;&#xa;" style="text;html=1;strokeColor=none;fillColor=none;align=center;verticalAlign=middle;whiteSpace=wrap;rounded=0;" parent="eM4sCDxInWaTErPFrOKH-61" vertex="1">
          <mxGeometry x="17.14" y="59.996666666666655" width="112.86" height="173.33333333333331" as="geometry" />
        </mxCell>
        <mxCell id="eM4sCDxInWaTErPFrOKH-63" value="" style="endArrow=open;endSize=12;dashed=1;html=1;rounded=0;fillColor=#050505;strokeColor=#000000;" parent="1" source="eM4sCDxInWaTErPFrOKH-44" target="eM4sCDxInWaTErPFrOKH-54" edge="1">
          <mxGeometry width="160" relative="1" as="geometry">
            <mxPoint x="558.0357142857142" y="250" as="sourcePoint" />
            <mxPoint x="320" y="191" as="targetPoint" />
          </mxGeometry>
        </mxCell>
        <mxCell id="eM4sCDxInWaTErPFrOKH-64" value="" style="endArrow=open;endSize=12;dashed=1;html=1;rounded=0;fillColor=#050505;strokeColor=#000000;" parent="1" source="eM4sCDxInWaTErPFrOKH-54" target="eM4sCDxInWaTErPFrOKH-50" edge="1">
          <mxGeometry width="160" relative="1" as="geometry">
            <mxPoint x="445" y="193" as="sourcePoint" />
            <mxPoint x="580" y="168" as="targetPoint" />
          </mxGeometry>
        </mxCell>
        <mxCell id="eM4sCDxInWaTErPFrOKH-65" value="" style="endArrow=open;endSize=12;dashed=1;html=1;rounded=0;fillColor=#050505;strokeColor=#000000;" parent="1" source="eM4sCDxInWaTErPFrOKH-57" target="eM4sCDxInWaTErPFrOKH-44" edge="1">
          <mxGeometry width="160" relative="1" as="geometry">
            <mxPoint x="450" y="303.57142857142844" as="sourcePoint" />
            <mxPoint x="580" y="168" as="targetPoint" />
          </mxGeometry>
        </mxCell>
        <mxCell id="eM4sCDxInWaTErPFrOKH-71" value="" style="group" parent="1" vertex="1" connectable="0">
          <mxGeometry x="960" y="180" width="140" height="150" as="geometry" />
        </mxCell>
        <mxCell id="eM4sCDxInWaTErPFrOKH-52" value="" style="group" parent="eM4sCDxInWaTErPFrOKH-71" vertex="1" connectable="0">
          <mxGeometry width="140" height="150" as="geometry" />
        </mxCell>
        <mxCell id="eM4sCDxInWaTErPFrOKH-50" value="&lt;div style=&quot;&quot;&gt;&lt;span style=&quot;font-weight: normal; background-color: initial;&quot;&gt;+ Order&lt;/span&gt;&lt;/div&gt;&lt;span style=&quot;font-weight: normal;&quot;&gt;&lt;div style=&quot;&quot;&gt;&lt;span style=&quot;background-color: initial;&quot;&gt;+ Order_Detail&lt;/span&gt;&lt;/div&gt;&lt;div style=&quot;&quot;&gt;&lt;span style=&quot;background-color: initial;&quot;&gt;+ Product&lt;/span&gt;&lt;/div&gt;&lt;div style=&quot;&quot;&gt;&lt;span style=&quot;background-color: initial;&quot;&gt;+ Shop&lt;/span&gt;&lt;/div&gt;&lt;div style=&quot;&quot;&gt;&lt;span style=&quot;background-color: initial;&quot;&gt;+ User&lt;/span&gt;&lt;/div&gt;&lt;div style=&quot;&quot;&gt;&lt;span style=&quot;background-color: initial;&quot;&gt;+ Article&lt;/span&gt;&lt;/div&gt;&lt;/span&gt;" style="shape=folder;fontStyle=1;spacingTop=10;tabWidth=100;tabHeight=30;tabPosition=left;html=1;whiteSpace=wrap;align=left;" parent="eM4sCDxInWaTErPFrOKH-52" vertex="1">
          <mxGeometry width="140" height="150" as="geometry" />
        </mxCell>
        <mxCell id="eM4sCDxInWaTErPFrOKH-51" value="Database" style="text;align=center;fontStyle=1;verticalAlign=middle;spacingLeft=3;spacingRight=3;strokeColor=none;rotatable=0;points=[[0,0.5],[1,0.5]];portConstraint=eastwest;html=1;" parent="eM4sCDxInWaTErPFrOKH-71" vertex="1">
          <mxGeometry width="100" height="30" as="geometry" />
        </mxCell>
        <mxCell id="eM4sCDxInWaTErPFrOKH-35" value="" style="endArrow=open;endSize=12;dashed=1;html=1;rounded=0;fillColor=#050505;strokeColor=#000000;" parent="1" source="rm3jaWlkkU7YF9_rTVwL-1" target="eM4sCDxInWaTErPFrOKH-57" edge="1">
          <mxGeometry width="160" relative="1" as="geometry">
            <mxPoint x="-30" y="260" as="sourcePoint" />
            <mxPoint x="147.13999999999987" y="163" as="targetPoint" />
          </mxGeometry>
        </mxCell>
        <mxCell id="IbgrZMQ8O4S78dFNysbm-1" value="&lt;b&gt;Front end&lt;/b&gt;" style="shape=umlFrame;whiteSpace=wrap;html=1;pointerEvents=0;width=110;height=30;" parent="1" vertex="1">
          <mxGeometry x="80" y="40" width="340" height="390" as="geometry" />
        </mxCell>
        <mxCell id="IbgrZMQ8O4S78dFNysbm-2" value="&lt;b&gt;Back end&lt;/b&gt;" style="shape=umlFrame;whiteSpace=wrap;html=1;pointerEvents=0;width=110;height=30;" parent="1" vertex="1">
          <mxGeometry x="490" y="40" width="400" height="390" as="geometry" />
        </mxCell>
      </root>
    </mxGraphModel>
  </diagram>
  <diagram id="jThHOJVwznQ6dCVncbGF" name="Page-3">
    <mxGraphModel dx="941" dy="1553" grid="1" gridSize="10" guides="1" tooltips="1" connect="1" arrows="1" fold="1" page="1" pageScale="1" pageWidth="850" pageHeight="1100" math="0" shadow="0">
      <root>
        <mxCell id="0" />
        <mxCell id="1" parent="0" />
        <mxCell id="VMKowQZ4-oSo1nsilIic-1" value="&amp;lt;&amp;lt;web browser&amp;gt;&amp;gt;" style="verticalAlign=top;align=left;spacingTop=8;spacingLeft=2;spacingRight=12;shape=cube;size=10;direction=south;fontStyle=4;html=1;whiteSpace=wrap;" parent="1" vertex="1">
          <mxGeometry x="70" y="330" width="160" height="60" as="geometry" />
        </mxCell>
        <mxCell id="VMKowQZ4-oSo1nsilIic-4" value="" style="group" parent="1" vertex="1" connectable="0">
          <mxGeometry x="410" y="550" width="180" height="120" as="geometry" />
        </mxCell>
        <mxCell id="VMKowQZ4-oSo1nsilIic-2" value="&amp;lt;&amp;lt;deploy environment&amp;gt;&amp;gt;" style="verticalAlign=top;align=left;spacingTop=8;spacingLeft=2;spacingRight=12;shape=cube;size=10;direction=south;fontStyle=4;html=1;whiteSpace=wrap;" parent="VMKowQZ4-oSo1nsilIic-4" vertex="1">
          <mxGeometry width="180" height="120" as="geometry" />
        </mxCell>
        <mxCell id="VMKowQZ4-oSo1nsilIic-3" value="Node.js, React, RESTful API, https, TCP/IP" style="text;html=1;strokeColor=none;fillColor=none;align=left;verticalAlign=middle;whiteSpace=wrap;rounded=0;" parent="VMKowQZ4-oSo1nsilIic-4" vertex="1">
          <mxGeometry x="10" y="60" width="150" height="30" as="geometry" />
        </mxCell>
        <mxCell id="3UyTcKMraD7dQtUkViTW-15" value="" style="group" parent="1" vertex="1" connectable="0">
          <mxGeometry x="400" y="30" width="190" height="210" as="geometry" />
        </mxCell>
        <mxCell id="3UyTcKMraD7dQtUkViTW-11" value="&lt;p style=&quot;margin:0px;margin-top:6px;text-align:center;&quot;&gt;&amp;lt;&amp;lt;deployment spec&amp;gt;&amp;gt;&lt;/p&gt;&lt;p style=&quot;margin:0px;margin-top:6px;text-align:center;&quot;&gt;&lt;b&gt;Buymee/server/index.ts&lt;/b&gt;&lt;/p&gt;&lt;hr&gt;&lt;p style=&quot;margin:0px;margin-left:8px;&quot;&gt;&lt;br&gt;&lt;/p&gt;" style="align=left;overflow=fill;html=1;dropTarget=0;whiteSpace=wrap;" parent="3UyTcKMraD7dQtUkViTW-15" vertex="1">
          <mxGeometry width="190" height="210" as="geometry" />
        </mxCell>
        <mxCell id="3UyTcKMraD7dQtUkViTW-12" value="" style="shape=component;jettyWidth=8;jettyHeight=4;" parent="3UyTcKMraD7dQtUkViTW-11" vertex="1">
          <mxGeometry x="1" width="20" height="20" relative="1" as="geometry">
            <mxPoint x="-24" y="4" as="offset" />
          </mxGeometry>
        </mxCell>
        <mxCell id="3UyTcKMraD7dQtUkViTW-13" value="Controller" style="shape=module;align=left;spacingLeft=20;align=center;verticalAlign=top;whiteSpace=wrap;html=1;" parent="3UyTcKMraD7dQtUkViTW-15" vertex="1">
          <mxGeometry x="45" y="134.44111111111113" width="100" height="38.88888888888889" as="geometry" />
        </mxCell>
        <mxCell id="3UyTcKMraD7dQtUkViTW-32" value="Model" style="shape=module;align=left;spacingLeft=20;align=center;verticalAlign=top;whiteSpace=wrap;html=1;" parent="3UyTcKMraD7dQtUkViTW-15" vertex="1">
          <mxGeometry x="45" y="79.99666666666667" width="100" height="38.88888888888889" as="geometry" />
        </mxCell>
        <mxCell id="3UyTcKMraD7dQtUkViTW-16" value="" style="endArrow=none;html=1;rounded=0;entryX=0;entryY=0.5;entryDx=0;entryDy=0;" parent="1" source="VMKowQZ4-oSo1nsilIic-1" target="vdFNnmxcxMZoIHbvkjx_-14" edge="1">
          <mxGeometry width="50" height="50" relative="1" as="geometry">
            <mxPoint x="230" y="350" as="sourcePoint" />
            <mxPoint x="400" y="350" as="targetPoint" />
          </mxGeometry>
        </mxCell>
        <mxCell id="3UyTcKMraD7dQtUkViTW-17" value="TCP/IP" style="edgeLabel;html=1;align=center;verticalAlign=middle;resizable=0;points=[];" parent="3UyTcKMraD7dQtUkViTW-16" vertex="1" connectable="0">
          <mxGeometry x="-0.4155" y="1" relative="1" as="geometry">
            <mxPoint x="20" y="13" as="offset" />
          </mxGeometry>
        </mxCell>
        <mxCell id="3UyTcKMraD7dQtUkViTW-18" value="" style="group" parent="1" vertex="1" connectable="0">
          <mxGeometry x="720" y="150" width="350" height="430" as="geometry" />
        </mxCell>
        <mxCell id="3UyTcKMraD7dQtUkViTW-33" value="" style="group" parent="3UyTcKMraD7dQtUkViTW-18" vertex="1" connectable="0">
          <mxGeometry x="20" y="-170" width="350" height="330" as="geometry" />
        </mxCell>
        <mxCell id="3UyTcKMraD7dQtUkViTW-19" value="&lt;p style=&quot;margin:0px;margin-top:6px;text-align:center;&quot;&gt;&amp;lt;&amp;lt;deployment spec&amp;gt;&amp;gt;&lt;/p&gt;&lt;p style=&quot;margin:0px;margin-top:6px;text-align:center;&quot;&gt;&lt;b&gt;Database Server&lt;/b&gt;&lt;/p&gt;&lt;hr&gt;&lt;p style=&quot;margin:0px;margin-left:8px;&quot;&gt;&lt;br&gt;&lt;/p&gt;" style="align=left;overflow=fill;html=1;dropTarget=0;whiteSpace=wrap;" parent="3UyTcKMraD7dQtUkViTW-33" vertex="1">
          <mxGeometry width="350" height="330" as="geometry" />
        </mxCell>
        <mxCell id="3UyTcKMraD7dQtUkViTW-20" value="" style="shape=component;jettyWidth=8;jettyHeight=4;" parent="3UyTcKMraD7dQtUkViTW-19" vertex="1">
          <mxGeometry x="1" width="20" height="20" relative="1" as="geometry">
            <mxPoint x="-24" y="4" as="offset" />
          </mxGeometry>
        </mxCell>
        <mxCell id="3UyTcKMraD7dQtUkViTW-31" value="" style="group" parent="3UyTcKMraD7dQtUkViTW-33" vertex="1" connectable="0">
          <mxGeometry x="55" y="70" width="240" height="235" as="geometry" />
        </mxCell>
        <mxCell id="3UyTcKMraD7dQtUkViTW-24" value="&lt;p style=&quot;margin:0px;margin-top:6px;text-align:center;&quot;&gt;&amp;lt;&amp;lt;database system&amp;gt;&amp;gt;&lt;/p&gt;&lt;p style=&quot;margin:0px;margin-top:6px;text-align:center;&quot;&gt;&lt;b&gt;PostgreSQL Server&lt;/b&gt;&lt;/p&gt;&lt;hr&gt;&lt;p style=&quot;margin:0px;margin-left:8px;&quot;&gt;&lt;br&gt;&lt;/p&gt;" style="align=left;overflow=fill;html=1;dropTarget=0;whiteSpace=wrap;" parent="3UyTcKMraD7dQtUkViTW-31" vertex="1">
          <mxGeometry width="240" height="235" as="geometry" />
        </mxCell>
        <mxCell id="3UyTcKMraD7dQtUkViTW-25" value="" style="shape=component;jettyWidth=8;jettyHeight=4;" parent="3UyTcKMraD7dQtUkViTW-24" vertex="1">
          <mxGeometry x="1" width="20" height="20" relative="1" as="geometry">
            <mxPoint x="-24" y="4" as="offset" />
          </mxGeometry>
        </mxCell>
        <mxCell id="3UyTcKMraD7dQtUkViTW-26" value="Product" style="shape=module;align=left;spacingLeft=20;align=center;verticalAlign=top;whiteSpace=wrap;html=1;" parent="3UyTcKMraD7dQtUkViTW-31" vertex="1">
          <mxGeometry x="13.584905660377359" y="52.22222222222222" width="90.56603773584906" height="43.51851851851852" as="geometry" />
        </mxCell>
        <mxCell id="3UyTcKMraD7dQtUkViTW-27" value="Account" style="shape=module;align=left;spacingLeft=20;align=center;verticalAlign=top;whiteSpace=wrap;html=1;" parent="3UyTcKMraD7dQtUkViTW-31" vertex="1">
          <mxGeometry x="113.20754716981132" y="52.22222222222222" width="90.56603773584906" height="43.51851851851852" as="geometry" />
        </mxCell>
        <mxCell id="3UyTcKMraD7dQtUkViTW-28" value="Order" style="shape=module;align=left;spacingLeft=20;align=center;verticalAlign=top;whiteSpace=wrap;html=1;" parent="3UyTcKMraD7dQtUkViTW-31" vertex="1">
          <mxGeometry x="13.584905660377359" y="113.14814814814815" width="90.56603773584906" height="43.51851851851852" as="geometry" />
        </mxCell>
        <mxCell id="3UyTcKMraD7dQtUkViTW-30" value="Article" style="shape=module;align=left;spacingLeft=20;align=center;verticalAlign=top;whiteSpace=wrap;html=1;" parent="3UyTcKMraD7dQtUkViTW-31" vertex="1">
          <mxGeometry x="113.20754716981132" y="113.14814814814815" width="90.56603773584906" height="43.51851851851852" as="geometry" />
        </mxCell>
        <mxCell id="3UyTcKMraD7dQtUkViTW-29" value="Shop" style="shape=module;align=left;spacingLeft=20;align=center;verticalAlign=top;whiteSpace=wrap;html=1;" parent="3UyTcKMraD7dQtUkViTW-31" vertex="1">
          <mxGeometry x="13.584905660377359" y="174.07407407407408" width="90.56603773584906" height="43.51851851851852" as="geometry" />
        </mxCell>
        <mxCell id="vdFNnmxcxMZoIHbvkjx_-5" value="" style="group" parent="3UyTcKMraD7dQtUkViTW-18" vertex="1" connectable="0">
          <mxGeometry x="105" y="260" width="180" height="120" as="geometry" />
        </mxCell>
        <mxCell id="vdFNnmxcxMZoIHbvkjx_-6" value="&amp;lt;&amp;lt;deploy environment&amp;gt;&amp;gt;" style="verticalAlign=top;align=left;spacingTop=8;spacingLeft=2;spacingRight=12;shape=cube;size=10;direction=south;fontStyle=4;html=1;whiteSpace=wrap;" parent="vdFNnmxcxMZoIHbvkjx_-5" vertex="1">
          <mxGeometry width="180" height="120" as="geometry" />
        </mxCell>
        <mxCell id="vdFNnmxcxMZoIHbvkjx_-7" value="Node.js, TCP/IP, PostgreSQL" style="text;html=1;strokeColor=none;fillColor=none;align=left;verticalAlign=middle;whiteSpace=wrap;rounded=0;" parent="vdFNnmxcxMZoIHbvkjx_-5" vertex="1">
          <mxGeometry x="10" y="60" width="150" height="30" as="geometry" />
        </mxCell>
        <mxCell id="vdFNnmxcxMZoIHbvkjx_-23" value="" style="endArrow=open;endSize=12;dashed=1;html=1;rounded=0;fillColor=#050505;strokeColor=#000000;" parent="3UyTcKMraD7dQtUkViTW-18" source="vdFNnmxcxMZoIHbvkjx_-6" target="3UyTcKMraD7dQtUkViTW-19" edge="1">
          <mxGeometry width="160" relative="1" as="geometry">
            <mxPoint x="20" y="150" as="sourcePoint" />
            <mxPoint x="190" y="207" as="targetPoint" />
            <Array as="points" />
          </mxGeometry>
        </mxCell>
        <mxCell id="vdFNnmxcxMZoIHbvkjx_-24" value="&amp;lt;&amp;lt;deploy&amp;gt;&amp;gt;" style="edgeLabel;html=1;align=center;verticalAlign=middle;resizable=0;points=[];" parent="vdFNnmxcxMZoIHbvkjx_-23" vertex="1" connectable="0">
          <mxGeometry x="-0.339" y="4" relative="1" as="geometry">
            <mxPoint x="39" y="-5" as="offset" />
          </mxGeometry>
        </mxCell>
        <mxCell id="vdFNnmxcxMZoIHbvkjx_-1" value="" style="endArrow=open;endSize=12;dashed=1;html=1;rounded=0;fillColor=#050505;strokeColor=#000000;entryX=0;entryY=0.25;entryDx=0;entryDy=0;exitX=0;exitY=0;exitDx=25.000000000000004;exitDy=0;exitPerimeter=0;" parent="1" source="VMKowQZ4-oSo1nsilIic-1" target="vdFNnmxcxMZoIHbvkjx_-14" edge="1">
          <mxGeometry width="160" relative="1" as="geometry">
            <mxPoint x="240" y="280" as="sourcePoint" />
            <mxPoint x="390" y="283" as="targetPoint" />
          </mxGeometry>
        </mxCell>
        <mxCell id="vdFNnmxcxMZoIHbvkjx_-2" value="React" style="edgeLabel;html=1;align=center;verticalAlign=middle;resizable=0;points=[];" parent="vdFNnmxcxMZoIHbvkjx_-1" vertex="1" connectable="0">
          <mxGeometry x="-0.339" y="4" relative="1" as="geometry">
            <mxPoint x="25" y="-5" as="offset" />
          </mxGeometry>
        </mxCell>
        <mxCell id="vdFNnmxcxMZoIHbvkjx_-3" value="" style="endArrow=none;html=1;rounded=0;" parent="1" source="3UyTcKMraD7dQtUkViTW-11" target="3UyTcKMraD7dQtUkViTW-19" edge="1">
          <mxGeometry width="50" height="50" relative="1" as="geometry">
            <mxPoint x="420" y="130" as="sourcePoint" />
            <mxPoint x="590" y="130" as="targetPoint" />
          </mxGeometry>
        </mxCell>
        <mxCell id="vdFNnmxcxMZoIHbvkjx_-4" value="TCP/IP" style="edgeLabel;html=1;align=center;verticalAlign=middle;resizable=0;points=[];" parent="vdFNnmxcxMZoIHbvkjx_-3" vertex="1" connectable="0">
          <mxGeometry x="-0.4155" y="1" relative="1" as="geometry">
            <mxPoint x="31" y="-11" as="offset" />
          </mxGeometry>
        </mxCell>
        <mxCell id="vdFNnmxcxMZoIHbvkjx_-18" value="" style="group" parent="1" vertex="1" connectable="0">
          <mxGeometry x="400" y="330" width="190" height="160" as="geometry" />
        </mxCell>
        <mxCell id="vdFNnmxcxMZoIHbvkjx_-14" value="&lt;p style=&quot;margin:0px;margin-top:6px;text-align:center;&quot;&gt;&amp;lt;&amp;lt;deployment spec&amp;gt;&amp;gt;&lt;/p&gt;&lt;p style=&quot;margin:0px;margin-top:6px;text-align:center;&quot;&gt;&lt;b&gt;Buymee/server/index.ts&lt;/b&gt;&lt;/p&gt;&lt;hr&gt;&lt;p style=&quot;margin:0px;margin-left:8px;&quot;&gt;&lt;br&gt;&lt;/p&gt;" style="align=left;overflow=fill;html=1;dropTarget=0;whiteSpace=wrap;" parent="vdFNnmxcxMZoIHbvkjx_-18" vertex="1">
          <mxGeometry width="190" height="160" as="geometry" />
        </mxCell>
        <mxCell id="vdFNnmxcxMZoIHbvkjx_-15" value="" style="shape=component;jettyWidth=8;jettyHeight=4;" parent="vdFNnmxcxMZoIHbvkjx_-14" vertex="1">
          <mxGeometry x="1" width="20" height="20" relative="1" as="geometry">
            <mxPoint x="-24" y="4" as="offset" />
          </mxGeometry>
        </mxCell>
        <mxCell id="3UyTcKMraD7dQtUkViTW-14" value="View" style="shape=module;align=left;spacingLeft=20;align=center;verticalAlign=top;whiteSpace=wrap;html=1;" parent="vdFNnmxcxMZoIHbvkjx_-18" vertex="1">
          <mxGeometry x="45" y="70" width="100" height="50" as="geometry" />
        </mxCell>
        <mxCell id="vdFNnmxcxMZoIHbvkjx_-21" value="" style="endArrow=open;endSize=12;dashed=1;html=1;rounded=0;fillColor=#050505;strokeColor=#000000;" parent="1" source="vdFNnmxcxMZoIHbvkjx_-14" target="3UyTcKMraD7dQtUkViTW-11" edge="1">
          <mxGeometry width="160" relative="1" as="geometry">
            <mxPoint x="240" y="323" as="sourcePoint" />
            <mxPoint x="410" y="380" as="targetPoint" />
          </mxGeometry>
        </mxCell>
        <mxCell id="vdFNnmxcxMZoIHbvkjx_-22" value="RESTful API" style="edgeLabel;html=1;align=center;verticalAlign=middle;resizable=0;points=[];" parent="vdFNnmxcxMZoIHbvkjx_-21" vertex="1" connectable="0">
          <mxGeometry x="-0.339" y="4" relative="1" as="geometry">
            <mxPoint x="4" y="-5" as="offset" />
          </mxGeometry>
        </mxCell>
        <mxCell id="vdFNnmxcxMZoIHbvkjx_-25" value="" style="endArrow=open;endSize=12;dashed=1;html=1;rounded=0;fillColor=#050505;strokeColor=#000000;" parent="1" source="vdFNnmxcxMZoIHbvkjx_-14" target="VMKowQZ4-oSo1nsilIic-2" edge="1">
          <mxGeometry width="160" relative="1" as="geometry">
            <mxPoint x="440" y="620" as="sourcePoint" />
            <mxPoint x="440" y="520" as="targetPoint" />
            <Array as="points" />
          </mxGeometry>
        </mxCell>
        <mxCell id="vdFNnmxcxMZoIHbvkjx_-26" value="&amp;lt;&amp;lt;deploy&amp;gt;&amp;gt;" style="edgeLabel;html=1;align=center;verticalAlign=middle;resizable=0;points=[];" parent="vdFNnmxcxMZoIHbvkjx_-25" vertex="1" connectable="0">
          <mxGeometry x="-0.339" y="4" relative="1" as="geometry">
            <mxPoint x="39" y="-5" as="offset" />
          </mxGeometry>
        </mxCell>
      </root>
    </mxGraphModel>
  </diagram>
</mxfile>
